<svg width="64" height="53" viewBox="0 0 64 53" fill="none" xmlns="http://www.w3.org/2000/svg">
<path d="M33.8824 11.1436H30.1176V14.8581H33.8824V11.1436Z" fill="black"/>
<path d="M3.76471 11.1436H0V22.2871H3.76471V11.1436Z" fill="black"/>
<path d="M37.6471 7.42908H33.8824V11.1436H37.6471V7.42908Z" fill="black"/>
<path d="M41.4118 3.7146H37.6471V7.42911H41.4118V3.7146Z" fill="black"/>
<path d="M52.7059 0H41.4118V3.71456H52.7059V0Z" fill="black"/>
<path d="M56.4706 3.7146H52.7059V7.42911H56.4706V3.7146Z" fill="black"/>
<path d="M60.2353 7.42908H56.4706V11.1436H60.2353V7.42908Z" fill="black"/>
<path d="M7.52942 7.42908H3.76471V11.1436H7.52942V7.42908Z" fill="black"/>
<path d="M11.2941 3.7146H7.52941V7.42911H11.2941V3.7146Z" fill="black"/>
<path d="M22.5882 0H11.2941V3.71456H22.5882V0Z" fill="black"/>
<path d="M26.3529 3.7146H22.5882V7.42911H26.3529V3.7146Z" fill="black"/>
<path d="M30.1176 7.42908H26.3529V11.1436H30.1176V7.42908Z" fill="black"/>
<path d="M64 11.1436H60.2353V22.2871H64V11.1436Z" fill="black"/>
<path d="M60.2353 22.2872H56.4706V26.0017H60.2353V22.2872Z" fill="black"/>
<path d="M56.4706 26.0016H52.7059V29.7161H56.4706V26.0016Z" fill="black"/>
<path d="M52.7059 29.7161H48.9411V33.4306H52.7059V29.7161Z" fill="black"/>
<path d="M48.9411 33.4307H45.1765V37.1452H48.9411V33.4307Z" fill="black"/>
<path d="M45.1765 37.1451H41.4118V40.8597H45.1765V37.1451Z" fill="black"/>
<path d="M41.4118 40.8597H37.6471V44.5742H41.4118V40.8597Z" fill="black"/>
<path d="M37.6471 44.5742H33.8824V48.2887H37.6471V44.5742Z" fill="black"/>
<path d="M33.8824 48.2887H30.1176V52.0032H33.8824V48.2887Z" fill="black"/>
<path d="M7.52942 22.2872H3.76471V26.0017H7.52942V22.2872Z" fill="black"/>
<path d="M11.2941 26.0016H7.52941V29.7161H11.2941V26.0016Z" fill="black"/>
<path d="M15.0588 29.7161H11.2941V33.4306H15.0588V29.7161Z" fill="black"/>
<path d="M18.8235 33.4307H15.0588V37.1452H18.8235V33.4307Z" fill="black"/>
<path d="M22.5882 37.1451H18.8235V40.8597H22.5882V37.1451Z" fill="black"/>
<path d="M26.3529 40.8597H22.5882V44.5742H26.3529V40.8597Z" fill="black"/>
<path d="M30.1176 44.5742H26.3529V48.2887H30.1176V44.5742Z" fill="black"/>
</svg>
