<svg width="128" height="105" viewBox="0 0 128 105" fill="none" xmlns="http://www.w3.org/2000/svg">
<path d="M67.7648 22.2872H60.2353V29.7162H67.7648V22.2872Z" fill="black"/>
<path d="M7.52942 22.2872H0V44.5743H7.52942V22.2872Z" fill="black"/>
<path d="M75.2941 14.8582H67.7648V22.2872H75.2941V14.8582Z" fill="black"/>
<path d="M82.8235 7.4292H75.2941V14.8582H82.8235V7.4292Z" fill="black"/>
<path d="M105.412 0H82.8235V7.42911H105.412V0Z" fill="black"/>
<path d="M112.941 7.4292H105.412V14.8582H112.941V7.4292Z" fill="black"/>
<path d="M120.471 14.8582H112.941V22.2872H120.471V14.8582Z" fill="black"/>
<path d="M15.0588 14.8582H7.52942V22.2872H15.0588V14.8582Z" fill="black"/>
<path d="M22.5882 7.4292H15.0588V14.8582H22.5882V7.4292Z" fill="black"/>
<path d="M45.1765 0H22.5883V7.42911H45.1765V0Z" fill="black"/>
<path d="M52.7059 7.4292H45.1765V14.8582H52.7059V7.4292Z" fill="black"/>
<path d="M60.2353 14.8582H52.7059V22.2872H60.2353V14.8582Z" fill="black"/>
<path d="M128 22.2872H120.471V44.5743H128V22.2872Z" fill="black"/>
<path d="M120.471 44.5743H112.941V52.0034H120.471V44.5743Z" fill="black"/>
<path d="M112.941 52.0032H105.412V59.4322H112.941V52.0032Z" fill="black"/>
<path d="M105.412 59.4323H97.8823V66.8613H105.412V59.4323Z" fill="black"/>
<path d="M97.8823 66.8613H90.3529V74.2903H97.8823V66.8613Z" fill="black"/>
<path d="M90.353 74.2903H82.8235V81.7193H90.353V74.2903Z" fill="black"/>
<path d="M82.8235 81.7194H75.2941V89.1484H82.8235V81.7194Z" fill="black"/>
<path d="M75.2941 89.1484H67.7648V96.5775H75.2941V89.1484Z" fill="black"/>
<path d="M67.7648 96.5774H60.2353V104.006H67.7648V96.5774Z" fill="black"/>
<path d="M15.0588 44.5743H7.52942V52.0034H15.0588V44.5743Z" fill="black"/>
<path d="M22.5882 52.0032H15.0588V59.4322H22.5882V52.0032Z" fill="black"/>
<path d="M30.1177 59.4323H22.5883V66.8613H30.1177V59.4323Z" fill="black"/>
<path d="M37.6471 66.8613H30.1177V74.2903H37.6471V66.8613Z" fill="black"/>
<path d="M45.1765 74.2903H37.6471V81.7193H45.1765V74.2903Z" fill="black"/>
<path d="M52.7059 81.7194H45.1765V89.1484H52.7059V81.7194Z" fill="black"/>
<path d="M60.2353 89.1484H52.7059V96.5775H60.2353V89.1484Z" fill="black"/>
</svg>
