<svg width="30" height="30" viewBox="0 0 30 30" fill="none" xmlns="http://www.w3.org/2000/svg">
<path d="M19.4117 0H17.647V1.76471H19.4117V0Z" fill="#49494B"/>
<path d="M12.353 0H10.5883V1.76471H12.353V0Z" fill="#49494B"/>
<path d="M19.4117 3.52942H17.647V5.29412H19.4117V3.52942Z" fill="#49494B"/>
<path d="M12.353 7.05884H10.5883V8.82354H12.353V7.05884Z" fill="#49494B"/>
<path d="M24.7059 12.353H22.9412V14.1177H24.7059V12.353Z" fill="#49494B"/>
<path d="M7.05883 12.353H5.29413V14.1177H7.05883V12.353Z" fill="#49494B"/>
<path d="M19.4117 8.82355H17.647V10.5883H19.4117V8.82355Z" fill="#49494B"/>
<path d="M19.4117 10.5883H17.647V12.353H19.4117V10.5883Z" fill="#49494B"/>
<path d="M12.353 10.5883H10.5883V12.353H12.353V10.5883Z" fill="#49494B"/>
<path d="M10.5883 12.353H8.82355V14.1177H10.5883V12.353Z" fill="#49494B"/>
<path d="M8.82354 12.353H7.05884V14.1177H8.82354V12.353Z" fill="#49494B"/>
<path d="M12.353 8.82355H10.5883V10.5883H12.353V8.82355Z" fill="#49494B"/>
<path d="M19.4117 7.05884H17.647V8.82354H19.4117V7.05884Z" fill="#49494B"/>
<path d="M12.353 5.29413H10.5883V7.05883H12.353V5.29413Z" fill="#49494B"/>
<path d="M19.4117 5.29413H17.647V7.05883H19.4117V5.29413Z" fill="#49494B"/>
<path d="M21.1764 15.8823H19.4117V17.647H21.1764V15.8823Z" fill="#49494B"/>
<path d="M8.82354 14.1177H7.05884V15.8824H8.82354V14.1177Z" fill="#49494B"/>
<path d="M22.9412 14.1177H21.1765V15.8824H22.9412V14.1177Z" fill="#49494B"/>
<path d="M10.5883 15.8823H8.82355V17.647H10.5883V15.8823Z" fill="#49494B"/>
<path d="M12.353 3.52942H10.5883V5.29412H12.353V3.52942Z" fill="#49494B"/>
<path d="M19.4117 1.76471H17.647V3.52942H19.4117V1.76471Z" fill="#49494B"/>
<path d="M17.647 12.353H15.8823V14.1177H17.647V12.353Z" fill="#49494B"/>
<path d="M21.1764 12.353H19.4117V14.1177H21.1764V12.353Z" fill="#49494B"/>
<path d="M22.9412 12.353H21.1765V14.1177H22.9412V12.353Z" fill="#49494B"/>
<path d="M19.4117 12.353H17.647V14.1177H19.4117V12.353Z" fill="#49494B"/>
<path d="M12.353 12.353H10.5883V14.1177H12.353V12.353Z" fill="#49494B"/>
<path d="M15.8824 12.353H14.1177V14.1177H15.8824V12.353Z" fill="#49494B"/>
<path d="M14.1177 12.353H12.353V14.1177H14.1177V12.353Z" fill="#49494B"/>
<path d="M10.5883 14.1177H8.82355V15.8824H10.5883V14.1177Z" fill="#49494B"/>
<path d="M17.647 14.1177H15.8823V15.8824H17.647V14.1177Z" fill="#49494B"/>
<path d="M21.1764 14.1177H19.4117V15.8824H21.1764V14.1177Z" fill="#49494B"/>
<path d="M19.4117 14.1177H17.647V15.8824H19.4117V14.1177Z" fill="#49494B"/>
<path d="M12.353 14.1177H10.5883V15.8824H12.353V14.1177Z" fill="#49494B"/>
<path d="M15.8824 14.1177H14.1177V15.8824H15.8824V14.1177Z" fill="#49494B"/>
<path d="M14.1177 14.1177H12.353V15.8824H14.1177V14.1177Z" fill="#49494B"/>
<path d="M17.647 15.8823H15.8823V17.647H17.647V15.8823Z" fill="#49494B"/>
<path d="M19.4117 15.8823H17.647V17.647H19.4117V15.8823Z" fill="#49494B"/>
<path d="M12.353 15.8823H10.5883V17.647H12.353V15.8823Z" fill="#49494B"/>
<path d="M15.8824 15.8823H14.1177V17.647H15.8824V15.8823Z" fill="#49494B"/>
<path d="M14.1177 15.8823H12.353V17.647H14.1177V15.8823Z" fill="#49494B"/>
<path d="M17.647 15.8823H15.8823V17.647H17.647V15.8823Z" fill="#49494B"/>
<path d="M19.4117 15.8823H17.647V17.647H19.4117V15.8823Z" fill="#49494B"/>
<path d="M12.353 15.8823H10.5883V17.647H12.353V15.8823Z" fill="#49494B"/>
<path d="M15.8824 15.8823H14.1177V17.647H15.8824V15.8823Z" fill="#49494B"/>
<path d="M14.1177 15.8823H12.353V17.647H14.1177V15.8823Z" fill="#49494B"/>
<path d="M17.647 17.647H15.8823V19.4117H17.647V17.647Z" fill="#49494B"/>
<path d="M15.8824 17.647H14.1177V19.4117H15.8824V17.647Z" fill="#49494B"/>
<path d="M14.1177 17.647H12.353V19.4117H14.1177V17.647Z" fill="#49494B"/>
<path d="M17.647 17.647H15.8823V19.4117H17.647V17.647Z" fill="#49494B"/>
<path d="M15.8824 17.647H14.1177V19.4117H15.8824V17.647Z" fill="#49494B"/>
<path d="M14.1177 17.647H12.353V19.4117H14.1177V17.647Z" fill="#49494B"/>
<path d="M14.1177 10.5883H12.353V12.353H14.1177V10.5883Z" fill="#49494B"/>
<path d="M17.647 10.5883H15.8823V12.353H17.647V10.5883Z" fill="#49494B"/>
<path d="M15.8824 10.5883H14.1177V12.353H15.8824V10.5883Z" fill="#49494B"/>
<path d="M14.1177 8.82355H12.353V10.5883H14.1177V8.82355Z" fill="#49494B"/>
<path d="M17.647 8.82355H15.8823V10.5883H17.647V8.82355Z" fill="#49494B"/>
<path d="M15.8824 8.82355H14.1177V10.5883H15.8824V8.82355Z" fill="#49494B"/>
<path d="M14.1177 7.05884H12.353V8.82354H14.1177V7.05884Z" fill="#49494B"/>
<path d="M17.647 7.05884H15.8823V8.82354H17.647V7.05884Z" fill="#49494B"/>
<path d="M15.8824 7.05884H14.1177V8.82354H15.8824V7.05884Z" fill="#49494B"/>
<path d="M14.1177 5.29413H12.353V7.05883H14.1177V5.29413Z" fill="#49494B"/>
<path d="M17.647 5.29413H15.8823V7.05883H17.647V5.29413Z" fill="#49494B"/>
<path d="M15.8824 5.29413H14.1177V7.05883H15.8824V5.29413Z" fill="#49494B"/>
<path d="M14.1177 3.52942H12.353V5.29412H14.1177V3.52942Z" fill="#49494B"/>
<path d="M17.647 3.52942H15.8823V5.29412H17.647V3.52942Z" fill="#49494B"/>
<path d="M15.8824 3.52942H14.1177V5.29412H15.8824V3.52942Z" fill="#49494B"/>
<path d="M14.1177 1.76471H12.353V3.52942H14.1177V1.76471Z" fill="#49494B"/>
<path d="M17.647 1.76471H15.8823V3.52942H17.647V1.76471Z" fill="#49494B"/>
<path d="M15.8824 1.76471H14.1177V3.52942H15.8824V1.76471Z" fill="#49494B"/>
<path d="M14.1177 0H12.353V1.76471H14.1177V0Z" fill="#49494B"/>
<path d="M17.647 0H15.8823V1.76471H17.647V0Z" fill="#49494B"/>
<path d="M15.8824 0H14.1177V1.76471H15.8824V0Z" fill="#49494B"/>
<path d="M15.8824 21.1765H14.1177V22.9412H15.8824V21.1765Z" fill="#49494B"/>
<path d="M17.647 22.9412H15.8823V24.7059H17.647V22.9412Z" fill="#49494B"/>
<path d="M19.4117 21.1765H17.647V22.9412H19.4117V21.1765Z" fill="#49494B"/>
<path d="M14.1177 22.9412H12.353V24.7059H14.1177V22.9412Z" fill="#49494B"/>
<path d="M12.353 21.1765H10.5883V22.9412H12.353V21.1765Z" fill="#49494B"/>
<path d="M15.8824 24.7059H14.1177V26.4706H15.8824V24.7059Z" fill="#49494B"/>
<path d="M15.8824 26.4706H14.1177V28.2353H15.8824V26.4706Z" fill="#49494B"/>
<path d="M14.1177 24.7059H12.353V26.4706H14.1177V24.7059Z" fill="#49494B"/>
<path d="M14.1177 26.4706H12.353V28.2353H14.1177V26.4706Z" fill="#49494B"/>
<path d="M12.353 22.9412H10.5883V24.7059H12.353V22.9412Z" fill="#49494B"/>
<path d="M12.353 24.7059H10.5883V26.4706H12.353V24.7059Z" fill="#49494B"/>
<path d="M12.353 26.4706H10.5883V28.2353H12.353V26.4706Z" fill="#49494B"/>
<path d="M17.647 24.7059H15.8823V26.4706H17.647V24.7059Z" fill="#49494B"/>
<path d="M17.647 26.4706H15.8823V28.2353H17.647V26.4706Z" fill="#49494B"/>
<path d="M19.4117 22.9412H17.647V24.7059H19.4117V22.9412Z" fill="#49494B"/>
<path d="M19.4117 24.7059H17.647V26.4706H19.4117V24.7059Z" fill="#49494B"/>
<path d="M19.4117 26.4706H17.647V28.2353H19.4117V26.4706Z" fill="#49494B"/>
<path d="M5.29412 21.1765H3.52942V22.9412H5.29412V21.1765Z" fill="#49494B"/>
<path d="M5.29412 22.9412H3.52942V24.7059H5.29412V22.9412Z" fill="#49494B"/>
<path d="M5.29412 24.7059H3.52942V26.4706H5.29412V24.7059Z" fill="#49494B"/>
<path d="M5.29412 26.4706H3.52942V28.2353H5.29412V26.4706Z" fill="#49494B"/>
<path d="M26.4706 21.1765H24.7059V22.9412H26.4706V21.1765Z" fill="#49494B"/>
<path d="M26.4706 22.9412H24.7059V24.7059H26.4706V22.9412Z" fill="#49494B"/>
<path d="M26.4706 24.7059H24.7059V26.4706H26.4706V24.7059Z" fill="#49494B"/>
<path d="M26.4706 26.4706H24.7059V28.2353H26.4706V26.4706Z" fill="#49494B"/>
<path d="M7.05883 21.1765H5.29413V22.9412H7.05883V21.1765Z" fill="#49494B"/>
<path d="M7.05883 22.9412H5.29413V24.7059H7.05883V22.9412Z" fill="#49494B"/>
<path d="M7.05883 24.7059H5.29413V26.4706H7.05883V24.7059Z" fill="#49494B"/>
<path d="M7.05883 26.4706H5.29413V28.2353H7.05883V26.4706Z" fill="#49494B"/>
<path d="M24.7059 21.1765H22.9412V22.9412H24.7059V21.1765Z" fill="#49494B"/>
<path d="M24.7059 22.9412H22.9412V24.7059H24.7059V22.9412Z" fill="#49494B"/>
<path d="M24.7059 24.7059H22.9412V26.4706H24.7059V24.7059Z" fill="#49494B"/>
<path d="M8.82354 21.1765H7.05884V22.9412H8.82354V21.1765Z" fill="#49494B"/>
<path d="M8.82354 22.9412H7.05884V24.7059H8.82354V22.9412Z" fill="#49494B"/>
<path d="M8.82354 24.7059H7.05884V26.4706H8.82354V24.7059Z" fill="#49494B"/>
<path d="M8.82354 26.4706H7.05884V28.2353H8.82354V26.4706Z" fill="#49494B"/>
<path d="M22.9412 21.1765H21.1765V22.9412H22.9412V21.1765Z" fill="#49494B"/>
<path d="M8.82354 19.4117H7.05884V21.1764H8.82354V19.4117Z" fill="#49494B"/>
<path d="M7.05883 19.4117H5.29413V21.1764H7.05883V19.4117Z" fill="#49494B"/>
<path d="M5.29412 19.4117H3.52942V21.1764H5.29412V19.4117Z" fill="#49494B"/>
<path d="M26.4706 19.4117H24.7059V21.1764H26.4706V19.4117Z" fill="#49494B"/>
<path d="M28.2353 21.1765H26.4706V22.9412H28.2353V21.1765Z" fill="#49494B"/>
<path d="M28.2353 22.9412H26.4706V24.7059H28.2353V22.9412Z" fill="#49494B"/>
<path d="M28.2353 19.4117H26.4706V21.1764H28.2353V19.4117Z" fill="#49494B"/>
<path d="M28.2353 21.1765H26.4706V22.9412H28.2353V21.1765Z" fill="#49494B"/>
<path d="M28.2353 22.9412H26.4706V24.7059H28.2353V22.9412Z" fill="#49494B"/>
<path d="M28.2353 24.7059H26.4706V26.4706H28.2353V24.7059Z" fill="#49494B"/>
<path d="M28.2353 19.4117H26.4706V21.1764H28.2353V19.4117Z" fill="#49494B"/>
<path d="M3.52942 21.1765H1.76471V22.9412H3.52942V21.1765Z" fill="#49494B"/>
<path d="M3.52942 22.9412H1.76471V24.7059H3.52942V22.9412Z" fill="#49494B"/>
<path d="M3.52942 24.7059H1.76471V26.4706H3.52942V24.7059Z" fill="#49494B"/>
<path d="M3.52942 26.4706H1.76471V28.2353H3.52942V26.4706Z" fill="#49494B"/>
<path d="M3.52942 19.4117H1.76471V21.1764H3.52942V19.4117Z" fill="#49494B"/>
<path d="M24.7059 19.4117H22.9412V21.1764H24.7059V19.4117Z" fill="#49494B"/>
<path d="M1.76471 21.1765H0V22.9412H1.76471V21.1765Z" fill="#49494B"/>
<path d="M1.76471 22.9412H0V24.7059H1.76471V22.9412Z" fill="#49494B"/>
<path d="M1.76471 24.7059H0V26.4706H1.76471V24.7059Z" fill="#49494B"/>
<path d="M1.76471 26.4706H0V28.2353H1.76471V26.4706Z" fill="#49494B"/>
<path d="M1.76471 19.4117H0V21.1764H1.76471V19.4117Z" fill="#49494B"/>
<path d="M1.76471 21.1765H0V22.9412H1.76471V21.1765Z" fill="#49494B"/>
<path d="M1.76471 22.9412H0V24.7059H1.76471V22.9412Z" fill="#49494B"/>
<path d="M1.76471 24.7059H0V26.4706H1.76471V24.7059Z" fill="#49494B"/>
<path d="M1.76471 26.4706H0V28.2353H1.76471V26.4706Z" fill="#49494B"/>
<path d="M30 21.1765H28.2353V22.9412H30V21.1765Z" fill="#49494B"/>
<path d="M30 22.9412H28.2353V24.7059H30V22.9412Z" fill="#49494B"/>
<path d="M30 24.7059H28.2353V26.4706H30V24.7059Z" fill="#49494B"/>
<path d="M30 26.4706H28.2353V28.2353H30V26.4706Z" fill="#49494B"/>
<path d="M30 19.4117H28.2353V21.1764H30V19.4117Z" fill="#49494B"/>
<path d="M30 21.1765H28.2353V22.9412H30V21.1765Z" fill="#49494B"/>
<path d="M30 22.9412H28.2353V24.7059H30V22.9412Z" fill="#49494B"/>
<path d="M30 24.7059H28.2353V26.4706H30V24.7059Z" fill="#49494B"/>
<path d="M30 19.4117H28.2353V21.1764H30V19.4117Z" fill="#49494B"/>
<path d="M22.9412 19.4117H21.1765V21.1764H22.9412V19.4117Z" fill="#49494B"/>
<path d="M22.9412 22.9412H21.1765V24.7059H22.9412V22.9412Z" fill="#49494B"/>
<path d="M22.9412 24.7059H21.1765V26.4706H22.9412V24.7059Z" fill="#49494B"/>
<path d="M22.9412 26.4706H21.1765V28.2353H22.9412V26.4706Z" fill="#49494B"/>
<path d="M10.5883 21.1765H8.82355V22.9412H10.5883V21.1765Z" fill="#49494B"/>
<path d="M10.5883 22.9412H8.82355V24.7059H10.5883V22.9412Z" fill="#49494B"/>
<path d="M10.5883 24.7059H8.82355V26.4706H10.5883V24.7059Z" fill="#49494B"/>
<path d="M10.5883 26.4706H8.82355V28.2353H10.5883V26.4706Z" fill="#49494B"/>
<path d="M21.1764 21.1765H19.4117V22.9412H21.1764V21.1765Z" fill="#49494B"/>
<path d="M21.1764 19.4117H19.4117V21.1764H21.1764V19.4117Z" fill="#49494B"/>
<path d="M10.5883 19.4117H8.82355V21.1764H10.5883V19.4117Z" fill="#49494B"/>
<path d="M21.1764 22.9412H19.4117V24.7059H21.1764V22.9412Z" fill="#49494B"/>
<path d="M21.1764 24.7059H19.4117V26.4706H21.1764V24.7059Z" fill="#49494B"/>
<path d="M21.1764 26.4706H19.4117V28.2353H21.1764V26.4706Z" fill="#49494B"/>
<path d="M15.8824 28.2353H14.1177V30H15.8824V28.2353Z" fill="#49494B"/>
<path d="M14.1177 28.2353H12.353V30H14.1177V28.2353Z" fill="#49494B"/>
<path d="M12.353 28.2353H10.5883V30H12.353V28.2353Z" fill="#49494B"/>
<path d="M17.647 28.2353H15.8823V30H17.647V28.2353Z" fill="#49494B"/>
<path d="M19.4117 28.2353H17.647V30H19.4117V28.2353Z" fill="#49494B"/>
<path d="M5.29412 28.2353H3.52942V30H5.29412V28.2353Z" fill="#49494B"/>
<path d="M26.4706 28.2353H24.7059V30H26.4706V28.2353Z" fill="#49494B"/>
<path d="M7.05883 28.2353H5.29413V30H7.05883V28.2353Z" fill="#49494B"/>
<path d="M24.7059 28.2353H22.9412V30H24.7059V28.2353Z" fill="#49494B"/>
<path d="M8.82354 28.2353H7.05884V30H8.82354V28.2353Z" fill="#49494B"/>
<path d="M28.2353 28.2353H26.4706V30H28.2353V28.2353Z" fill="#49494B"/>
<path d="M28.2353 28.2353H26.4706V30H28.2353V28.2353Z" fill="#49494B"/>
<path d="M3.52942 28.2353H1.76471V30H3.52942V28.2353Z" fill="#49494B"/>
<path d="M1.76471 28.2353H0V30H1.76471V28.2353Z" fill="#49494B"/>
<path d="M1.76471 28.2353H0V30H1.76471V28.2353Z" fill="#49494B"/>
<path d="M30 28.2353H28.2353V30H30V28.2353Z" fill="#49494B"/>
<path d="M30 28.2353H28.2353V30H30V28.2353Z" fill="#49494B"/>
<path d="M22.9412 28.2353H21.1765V30H22.9412V28.2353Z" fill="#49494B"/>
<path d="M10.5883 28.2353H8.82355V30H10.5883V28.2353Z" fill="#49494B"/>
<path d="M21.1764 28.2353H19.4117V30H21.1764V28.2353Z" fill="#49494B"/>
<path d="M15.8824 19.4117H14.1177V21.1764H15.8824V19.4117Z" fill="#49494B"/>
<path d="M19.4117 17.647H17.647V19.4117H19.4117V17.647Z" fill="#49494B"/>
<path d="M12.353 17.647H10.5883V19.4117H12.353V17.647Z" fill="#49494B"/>
<path d="M14.1177 19.4117H12.353V21.1764H14.1177V19.4117Z" fill="#49494B"/>
<path d="M17.647 19.4117H15.8823V21.1764H17.647V19.4117Z" fill="#49494B"/>
<path d="M17.647 19.4117H15.8823V21.1764H17.647V19.4117Z" fill="#49494B"/>
<path d="M12.353 1.76471H10.5883V3.52942H12.353V1.76471Z" fill="#49494B"/>
</svg>
