<svg width="35" height="24" viewBox="0 0 35 24" fill="none" xmlns="http://www.w3.org/2000/svg">
<path d="M7.36798 0H5.52588V1.84211H7.36798V0Z" fill="#49494B"/>
<path d="M11.0522 0H9.21008V1.84211H11.0522V0Z" fill="#49494B"/>
<path d="M9.21009 0H7.36798V1.84211H9.21009V0Z" fill="#49494B"/>
<path d="M14.7364 0H12.8943V1.84211H14.7364V0Z" fill="#49494B"/>
<path d="M12.8943 0H11.0522V1.84211H12.8943V0Z" fill="#49494B"/>
<path d="M16.5785 0H14.7364V1.84211H16.5785V0Z" fill="#49494B"/>
<path d="M20.2627 0H18.4206V1.84211H20.2627V0Z" fill="#49494B"/>
<path d="M18.4206 0H16.5785V1.84211H18.4206V0Z" fill="#49494B"/>
<path d="M23.9469 0H22.1048V1.84211H23.9469V0Z" fill="#49494B"/>
<path d="M29.4732 0H27.6311V1.84211H29.4732V0Z" fill="#49494B"/>
<path d="M31.3153 0H29.4732V1.84211H31.3153V0Z" fill="#49494B"/>
<path d="M25.789 0H23.9469V1.84211H25.789V0Z" fill="#49494B"/>
<path d="M23.9469 0H22.1048V1.84211H23.9469V0Z" fill="#49494B"/>
<path d="M27.6311 0H25.789V1.84211H27.6311V0Z" fill="#49494B"/>
<path d="M22.1048 0H20.2627V1.84211H22.1048V0Z" fill="#49494B"/>
<path d="M5.52631 0.00012207H3.6842V1.84223H5.52631V0.00012207Z" fill="#49494B"/>
<path d="M1.84211 3.6842H0V5.52631H1.84211V3.6842Z" fill="#49494B"/>
<path d="M31.3158 3.6842H29.4737V5.52631H31.3158V3.6842Z" fill="#49494B"/>
<path d="M33.1579 1.8421H31.3158V3.68421H33.1579V1.8421Z" fill="#49494B"/>
<path d="M35 16.5789H33.1579V18.4211H35V16.5789Z" fill="#49494B"/>
<path d="M35 11.0526H33.1579V12.8947H35V11.0526Z" fill="#49494B"/>
<path d="M35 12.8947H33.1579V14.7369H35V12.8947Z" fill="#49494B"/>
<path d="M35 18.4211H33.1579V20.2632H35V18.4211Z" fill="#49494B"/>
<path d="M31.3158 18.4211H29.4737V20.2632H31.3158V18.4211Z" fill="#49494B"/>
<path d="M33.1579 20.2632H31.3158V22.1053H33.1579V20.2632Z" fill="#49494B"/>
<path d="M31.3158 22.1053H29.4737V23.9474H31.3158V22.1053Z" fill="#49494B"/>
<path d="M35 7.36841H33.1579V9.21051H35V7.36841Z" fill="#49494B"/>
<path d="M35 9.21053H33.1579V11.0526H35V9.21053Z" fill="#49494B"/>
<path d="M35 14.7368H33.1579V16.579H35V14.7368Z" fill="#49494B"/>
<path d="M35 3.6842H33.1579V5.52631H35V3.6842Z" fill="#49494B"/>
<path d="M1.84211 7.36841H0V9.21051H1.84211V7.36841Z" fill="#49494B"/>
<path d="M35 5.52631H33.1579V7.36841H35V5.52631Z" fill="#49494B"/>
<path d="M1.84211 16.5789H0V18.4211H1.84211V16.5789Z" fill="#49494B"/>
<path d="M1.84211 18.4211H0V20.2632H1.84211V18.4211Z" fill="#49494B"/>
<path d="M1.84211 12.8947H0V14.7369H1.84211V12.8947Z" fill="#49494B"/>
<path d="M1.84211 14.7368H0V16.579H1.84211V14.7368Z" fill="#49494B"/>
<path d="M5.52631 18.4211H3.6842V20.2632H5.52631V18.4211Z" fill="#49494B"/>
<path d="M3.68421 20.2632H1.8421V22.1053H3.68421V20.2632Z" fill="#49494B"/>
<path d="M5.52631 22.1053H3.6842V23.9474H5.52631V22.1053Z" fill="#49494B"/>
<path d="M1.84211 9.21053H0V11.0526H1.84211V9.21053Z" fill="#49494B"/>
<path d="M1.84211 11.0526H0V12.8947H1.84211V11.0526Z" fill="#49494B"/>
<path d="M7.36841 22.1053H5.52631V23.9474H7.36841V22.1053Z" fill="#49494B"/>
<path d="M11.0526 22.1053H9.21051V23.9474H11.0526V22.1053Z" fill="#49494B"/>
<path d="M9.21051 22.1053H7.36841V23.9474H9.21051V22.1053Z" fill="#49494B"/>
<path d="M14.7368 22.1053H12.8947V23.9474H14.7368V22.1053Z" fill="#49494B"/>
<path d="M12.8947 22.1053H11.0526V23.9474H12.8947V22.1053Z" fill="#49494B"/>
<path d="M16.5789 22.1053H14.7368V23.9474H16.5789V22.1053Z" fill="#49494B"/>
<path d="M20.2632 22.1053H18.4211V23.9474H20.2632V22.1053Z" fill="#49494B"/>
<path d="M18.421 22.1053H16.5789V23.9474H18.421V22.1053Z" fill="#49494B"/>
<path d="M23.9474 22.1053H22.1053V23.9474H23.9474V22.1053Z" fill="#49494B"/>
<path d="M29.4737 22.1053H27.6316V23.9474H29.4737V22.1053Z" fill="#49494B"/>
<path d="M25.7895 22.1053H23.9474V23.9474H25.7895V22.1053Z" fill="#49494B"/>
<path d="M23.9474 22.1053H22.1053V23.9474H23.9474V22.1053Z" fill="#49494B"/>
<path d="M27.6316 22.1053H25.7895V23.9474H27.6316V22.1053Z" fill="#49494B"/>
<path d="M22.1053 22.1053H20.2632V23.9474H22.1053V22.1053Z" fill="#49494B"/>
<path d="M1.84211 5.52625H0V7.36835H1.84211V5.52625Z" fill="#49494B"/>
<path d="M5.52722 3.6842H3.68512V5.52631H5.52722V3.6842Z" fill="#49494B"/>
<path d="M3.68421 1.8421H1.8421V3.68421H3.68421V1.8421Z" fill="#49494B"/>
<path d="M7.36841 5.52631H5.52631V7.36841H7.36841V5.52631Z" fill="#49494B"/>
<path d="M23.9474 11.0526H22.1053V12.8947H23.9474V11.0526Z" fill="#49494B"/>
<path d="M12.8947 11.0526H11.0526V12.8947H12.8947V11.0526Z" fill="#49494B"/>
<path d="M29.4737 5.52631H27.6316V7.36841H29.4737V5.52631Z" fill="#49494B"/>
<path d="M11.0526 9.21053H9.21051V11.0526H11.0526V9.21053Z" fill="#49494B"/>
<path d="M25.7895 9.21053H23.9474V11.0526H25.7895V9.21053Z" fill="#49494B"/>
<path d="M27.6316 7.36841H25.7895V9.21051H27.6316V7.36841Z" fill="#49494B"/>
<path d="M20.2632 14.7368H18.4211V16.579H20.2632V14.7368Z" fill="#49494B"/>
<path d="M11.0526 12.8947H9.21051V14.7369H11.0526V12.8947Z" fill="#49494B"/>
<path d="M18.421 14.7368H16.5789V16.579H18.421V14.7368Z" fill="#49494B"/>
<path d="M7.36841 16.5789H5.52631V18.4211H7.36841V16.5789Z" fill="#49494B"/>
<path d="M27.6316 14.7368H25.7895V16.579H27.6316V14.7368Z" fill="#49494B"/>
<path d="M9.21051 14.7368H7.36841V16.579H9.21051V14.7368Z" fill="#49494B"/>
<path d="M29.4737 16.5789H27.6316V18.4211H29.4737V16.5789Z" fill="#49494B"/>
<path d="M25.7895 12.8947H23.9474V14.7369H25.7895V12.8947Z" fill="#49494B"/>
<path d="M22.1053 12.8947H20.2632V14.7369H22.1053V12.8947Z" fill="#49494B"/>
<path d="M9.21051 7.36841H7.36841V9.21051H9.21051V7.36841Z" fill="#49494B"/>
<path d="M16.5789 14.7368H14.7368V16.579H16.5789V14.7368Z" fill="#49494B"/>
<path d="M14.7368 12.8947H12.8947V14.7369H14.7368V12.8947Z" fill="#49494B"/>
</svg>
