<svg width="33" height="23" viewBox="0 0 33 23" fill="none" xmlns="http://www.w3.org/2000/svg">
<path d="M7.21067 0H5.15738V2.05329H7.21067V0Z" fill="#49494B"/>
<path d="M10.6492 0H8.59589V2.05329H10.6492V0Z" fill="#49494B"/>
<path d="M8.92994 0H6.87665V2.05329H8.92994V0Z" fill="#49494B"/>
<path d="M14.0877 0H12.0344V2.05329H14.0877V0Z" fill="#49494B"/>
<path d="M12.3684 0H10.3152V2.05329H12.3684V0Z" fill="#49494B"/>
<path d="M15.807 0H13.7537V2.05329H15.807V0Z" fill="#49494B"/>
<path d="M19.2455 0H17.1922V2.05329H19.2455V0Z" fill="#49494B"/>
<path d="M17.5262 0H15.4729V2.05329H17.5262V0Z" fill="#49494B"/>
<path d="M22.684 0H20.6307V2.05329H22.684V0Z" fill="#49494B"/>
<path d="M27.8418 0H25.7885V2.05329H27.8418V0Z" fill="#49494B"/>
<path d="M29.561 0H27.5078V2.05329H29.561V0Z" fill="#49494B"/>
<path d="M24.4033 0H22.35V2.05329H24.4033V0Z" fill="#49494B"/>
<path d="M22.684 0H20.6307V2.05329H22.684V0Z" fill="#49494B"/>
<path d="M26.1225 0H24.0692V2.05329H26.1225V0Z" fill="#49494B"/>
<path d="M20.9647 0H18.9114V2.05329H20.9647V0Z" fill="#49494B"/>
<path d="M5.4918 0.00012207H3.43851V2.05341H5.4918V0.00012207Z" fill="#49494B"/>
<path d="M2.05329 3.43851H0V5.4918H2.05329V3.43851Z" fill="#49494B"/>
<path d="M29.5615 3.43851H27.5082V5.4918H29.5615V3.43851Z" fill="#49494B"/>
<path d="M31.2807 1.71927H29.2274V3.77256H31.2807V1.71927Z" fill="#49494B"/>
<path d="M33 15.4734H30.9467V17.5266H33V15.4734Z" fill="#49494B"/>
<path d="M33 10.3156H30.9467V12.3689H33V10.3156Z" fill="#49494B"/>
<path d="M33 12.0348H30.9467V14.0881H33V12.0348Z" fill="#49494B"/>
<path d="M33 17.1926H30.9467V19.2459H33V17.1926Z" fill="#49494B"/>
<path d="M29.5615 17.1926H27.5082V19.2459H29.5615V17.1926Z" fill="#49494B"/>
<path d="M31.2807 18.9119H29.2274V20.9652H31.2807V18.9119Z" fill="#49494B"/>
<path d="M29.5615 20.6311H27.5082V22.6844H29.5615V20.6311Z" fill="#49494B"/>
<path d="M33 6.87704H30.9467V8.93033H33V6.87704Z" fill="#49494B"/>
<path d="M33 8.59631H30.9467V10.6496H33V8.59631Z" fill="#49494B"/>
<path d="M33 13.7541H30.9467V15.8074H33V13.7541Z" fill="#49494B"/>
<path d="M33 3.43851H30.9467V5.4918H33V3.43851Z" fill="#49494B"/>
<path d="M2.05329 6.87704H0V8.93033H2.05329V6.87704Z" fill="#49494B"/>
<path d="M33 5.15778H30.9467V7.21107H33V5.15778Z" fill="#49494B"/>
<path d="M2.05329 15.4734H0V17.5266H2.05329V15.4734Z" fill="#49494B"/>
<path d="M2.05329 17.1926H0V19.2459H2.05329V17.1926Z" fill="#49494B"/>
<path d="M2.05329 12.0348H0V14.0881H2.05329V12.0348Z" fill="#49494B"/>
<path d="M2.05329 13.7541H0V15.8074H2.05329V13.7541Z" fill="#49494B"/>
<path d="M5.4918 17.1926H3.43851V19.2459H5.4918V17.1926Z" fill="#49494B"/>
<path d="M3.77256 18.9119H1.71927V20.9652H3.77256V18.9119Z" fill="#49494B"/>
<path d="M5.4918 20.6311H3.43851V22.6844H5.4918V20.6311Z" fill="#49494B"/>
<path d="M2.05329 8.59631H0V10.6496H2.05329V8.59631Z" fill="#49494B"/>
<path d="M2.05329 10.3156H0V12.3689H2.05329V10.3156Z" fill="#49494B"/>
<path d="M7.21107 20.6311H5.15778V22.6844H7.21107V20.6311Z" fill="#49494B"/>
<path d="M10.6496 20.6311H8.59631V22.6844H10.6496V20.6311Z" fill="#49494B"/>
<path d="M8.93033 20.6311H6.87704V22.6844H8.93033V20.6311Z" fill="#49494B"/>
<path d="M14.0881 20.6311H12.0349V22.6844H14.0881V20.6311Z" fill="#49494B"/>
<path d="M12.3689 20.6311H10.3156V22.6844H12.3689V20.6311Z" fill="#49494B"/>
<path d="M15.8074 20.6311H13.7541V22.6844H15.8074V20.6311Z" fill="#49494B"/>
<path d="M19.2459 20.6311H17.1926V22.6844H19.2459V20.6311Z" fill="#49494B"/>
<path d="M17.5266 20.6311H15.4734V22.6844H17.5266V20.6311Z" fill="#49494B"/>
<path d="M22.6844 20.6311H20.6311V22.6844H22.6844V20.6311Z" fill="#49494B"/>
<path d="M27.8422 20.6311H25.7889V22.6844H27.8422V20.6311Z" fill="#49494B"/>
<path d="M24.4037 20.6311H22.3504V22.6844H24.4037V20.6311Z" fill="#49494B"/>
<path d="M22.6844 20.6311H20.6311V22.6844H22.6844V20.6311Z" fill="#49494B"/>
<path d="M26.123 20.6311H24.0697V22.6844H26.123V20.6311Z" fill="#49494B"/>
<path d="M20.9652 20.6311H18.9119V22.6844H20.9652V20.6311Z" fill="#49494B"/>
<path d="M2.05329 5.15771H0V7.211H2.05329V5.15771Z" fill="#49494B"/>
<path d="M5.49265 3.43851H3.43936V5.4918H5.49265V3.43851Z" fill="#49494B"/>
<path d="M3.77256 1.71927H1.71927V3.77256H3.77256V1.71927Z" fill="#49494B"/>
<path d="M7.21107 5.15778H5.15778V7.21107H7.21107V5.15778Z" fill="#49494B"/>
<path d="M22.6844 10.3156H20.6311V12.3689H22.6844V10.3156Z" fill="#49494B"/>
<path d="M12.3689 10.3156H10.3156V12.3689H12.3689V10.3156Z" fill="#49494B"/>
<path d="M27.8422 5.15778H25.7889V7.21107H27.8422V5.15778Z" fill="#49494B"/>
<path d="M10.6496 8.59631H8.59631V10.6496H10.6496V8.59631Z" fill="#49494B"/>
<path d="M24.4037 8.59631H22.3504V10.6496H24.4037V8.59631Z" fill="#49494B"/>
<path d="M26.123 6.87704H24.0697V8.93033H26.123V6.87704Z" fill="#49494B"/>
<path d="M19.2459 13.7541H17.1926V15.8074H19.2459V13.7541Z" fill="#49494B"/>
<path d="M10.6496 12.0348H8.59631V14.0881H10.6496V12.0348Z" fill="#49494B"/>
<path d="M17.5266 13.7541H15.4734V15.8074H17.5266V13.7541Z" fill="#49494B"/>
<path d="M7.21107 15.4734H5.15778V17.5266H7.21107V15.4734Z" fill="#49494B"/>
<path d="M26.123 13.7541H24.0697V15.8074H26.123V13.7541Z" fill="#49494B"/>
<path d="M8.93033 13.7541H6.87704V15.8074H8.93033V13.7541Z" fill="#49494B"/>
<path d="M27.8422 15.4734H25.7889V17.5266H27.8422V15.4734Z" fill="#49494B"/>
<path d="M24.4037 12.0348H22.3504V14.0881H24.4037V12.0348Z" fill="#49494B"/>
<path d="M20.9652 12.0348H18.9119V14.0881H20.9652V12.0348Z" fill="#49494B"/>
<path d="M8.93033 6.87704H6.87704V8.93033H8.93033V6.87704Z" fill="#49494B"/>
<path d="M15.8074 13.7541H13.7541V15.8074H15.8074V13.7541Z" fill="#49494B"/>
<path d="M14.0881 12.0348H12.0349V14.0881H14.0881V12.0348Z" fill="#49494B"/>
</svg>
