<svg width="32" height="27" viewBox="0 0 32 27" fill="none" xmlns="http://www.w3.org/2000/svg">
<path d="M16.9424 5.5722H15.0599V7.45234H16.9424V5.5722Z" fill="black"/>
<path d="M5.63278 9.40073H3.75027V11.2809H5.63278V9.40073Z" fill="#7F171B"/>
<path d="M5.63278 11.2509H3.75027V13.131H5.63278V11.2509Z" fill="#7F171B"/>
<path d="M1.88014 5.62222H0V11.2626H1.88014V5.62222Z" fill="black"/>
<path d="M3.75529 5.60043H1.87515V11.2408H3.75529V5.60043Z" fill="#7F171B"/>
<path d="M18.8226 3.71481H16.9424V5.59495H18.8226V3.71481Z" fill="black"/>
<path d="M20.7051 1.85742H18.8249V3.73756H20.7051V1.85742Z" fill="black"/>
<path d="M26.3478 0H20.7074V1.88014H26.3478V0Z" fill="black"/>
<path d="M28.235 1.85742H26.3549V3.73756H28.235V1.85742Z" fill="black"/>
<path d="M30.1175 3.71481H28.2374V5.59495H30.1175V3.71481Z" fill="black"/>
<path d="M3.765 3.76483H1.88251V5.64497H3.765V3.76483Z" fill="black"/>
<path d="M5.64748 1.90744H3.76498V3.78758H5.64748V1.90744Z" fill="black"/>
<path d="M11.2879 0.0500183H5.64749V1.90511H11.2879V0.0500183Z" fill="black"/>
<path d="M13.1751 1.90744H11.295V3.78758H13.1751V1.90744Z" fill="black"/>
<path d="M15.0576 3.71481H13.1774V5.59495H15.0576V3.71481Z" fill="black"/>
<path d="M32 5.5722H30.1199V11.2126H32V5.5722Z" fill="black"/>
<path d="M30.1175 11.1944H28.2374V13.0745H30.1175V11.1944Z" fill="black"/>
<path d="M28.235 13.0518H26.3549V14.9319H28.235V13.0518Z" fill="black"/>
<path d="M26.3525 14.9091H24.4724V16.7893H26.3525V14.9091Z" fill="black"/>
<path d="M24.47 16.7666H22.5899V18.6467H24.47V16.7666Z" fill="black"/>
<path d="M22.5875 18.6239H20.7074V20.5041H22.5875V18.6239Z" fill="black"/>
<path d="M20.7051 20.4814H18.8249V22.3615H20.7051V20.4814Z" fill="black"/>
<path d="M18.8226 22.3387H16.9424V24.2189H18.8226V22.3387Z" fill="black"/>
<path d="M16.9401 24.1961H15.0599V26.0763H16.9401V24.1961Z" fill="black"/>
<path d="M3.76265 11.2444H1.88251V13.1246H3.76265V11.2444Z" fill="black"/>
<path d="M5.64512 13.1018H3.76498V14.9819H5.64512V13.1018Z" fill="black"/>
<path d="M7.52763 14.9592H5.64749V16.8393H7.52763V14.9592Z" fill="black"/>
<path d="M9.41011 16.8166H7.52997V18.6967H9.41011V16.8166Z" fill="black"/>
<path d="M11.2926 18.674H9.41248V20.5541H11.2926V18.674Z" fill="black"/>
<path d="M13.1751 20.5314H11.295V22.4115H13.1751V20.5314Z" fill="black"/>
<path d="M15.0576 22.3888H13.1774V24.2689H15.0576V22.3888Z" fill="black"/>
<path d="M7.5329 1.90012H5.65039V3.78025H7.5329V1.90012Z" fill="#D80000"/>
<path d="M18.8514 20.4515H16.9512V22.3316H18.8514V20.4515Z" fill="#D80000"/>
<path d="M18.8337 5.6004H16.9512V7.48054H18.8337V5.6004Z" fill="#D80000"/>
<path d="M20.6839 5.60043H18.8014V7.48057H20.6839V5.60043Z" fill="#D80000"/>
<path d="M22.5341 5.60043H20.6516V7.48057H22.5341V5.60043Z" fill="#D80000"/>
<path d="M24.3842 5.60043H22.5017V7.48057H24.3842V5.60043Z" fill="#D80000"/>
<path d="M26.2343 5.60043H24.3518V7.48057H26.2343V5.60043Z" fill="white"/>
<path d="M26.1843 7.4505H24.3018V9.35064H26.1843V7.4505Z" fill="white"/>
<path d="M26.2843 9.2507H24.4018V11.1508H26.2843V9.2507Z" fill="white"/>
<path d="M24.4341 9.35068H22.5516V11.2508H24.4341V9.35068Z" fill="white"/>
<path d="M28.102 7.4505H26.2019V9.35064H28.102V7.4505Z" fill="#D80000"/>
<path d="M28.102 9.30069H26.2019V11.2008H28.102V9.30069Z" fill="#D80000"/>
<path d="M28.0844 5.60043H26.2019V7.48057H28.0844V5.60043Z" fill="#D80000"/>
<path d="M30.1322 5.60043H28.052V7.48057H30.1322V5.60043Z" fill="#D80000"/>
<path d="M30.1322 7.45053H28.0521V9.35067H30.1322V7.45053Z" fill="#D80000"/>
<path d="M30.1322 9.30078H28.0521V11.2009H30.1322V9.30078Z" fill="#D80000"/>
<path d="M11.3008 3.75027H9.4007V5.65041H11.3008V3.75027Z" fill="#D80000"/>
<path d="M13.201 3.75027H11.3008V5.65041H13.201V3.75027Z" fill="#D80000"/>
<path d="M9.40066 3.75027H7.50052V5.65041H9.40066V3.75027Z" fill="#D80000"/>
<path d="M9.38306 5.6004H7.50055V7.48054H9.38306V5.6004Z" fill="#D80000"/>
<path d="M9.40069 1.90012H7.50055V3.78025H9.40069V1.90012Z" fill="#D80000"/>
<path d="M11.3008 1.90015H9.4007V3.78028H11.3008V1.90015Z" fill="#D80000"/>
<path d="M5.65041 3.77527H3.75027V5.67541H5.65041V3.77527Z" fill="#D80000"/>
<path d="M15.0511 7.45053H13.151V9.35067H15.0511V7.45053Z" fill="#D80000"/>
<path d="M13.2009 7.45044H11.3007V9.35058H13.2009V7.45044Z" fill="#D80000"/>
<path d="M11.3008 7.45044H9.4007V9.35058H11.3008V7.45044Z" fill="#D80000"/>
<path d="M11.3008 9.35056H9.4007V11.2507H11.3008V9.35056Z" fill="#D80000"/>
<path d="M11.3008 11.2008H9.4007V13.1009H11.3008V11.2008Z" fill="#D80000"/>
<path d="M11.3508 11.2008H9.4007V13.1009H11.3508V11.2008Z" fill="#D80000"/>
<path d="M11.3508 13.0511H9.4007V14.9512H11.3508V13.0511Z" fill="#D80000"/>
<path d="M11.3508 13.0511H9.4007V14.9512H11.3508V13.0511Z" fill="#D80000"/>
<path d="M12.651 13.0511H10.7009V14.9512H12.651V13.0511Z" fill="#D80000"/>
<path d="M14.6511 13.0511H12.651V14.9512H14.6511V13.0511Z" fill="#D80000"/>
<path d="M13.3009 14.9012H11.3008V16.8013H13.3009V14.9012Z" fill="#D80000"/>
<path d="M15.3011 14.9011H13.301V16.8012H15.3011V14.9011Z" fill="#D80000"/>
<path d="M15.1011 16.7513H13.101V18.6514H15.1011V16.7513Z" fill="#D80000"/>
<path d="M17.1012 16.7513H15.101V18.6514H17.1012V16.7513Z" fill="#D80000"/>
<path d="M18.8514 18.6014H16.8512V20.5015H18.8514V18.6014Z" fill="#D80000"/>
<path d="M20.7015 18.6014H18.7014V20.5015H20.7015V18.6014Z" fill="#D80000"/>
<path d="M17.0513 18.6014H15.0511V20.5015H17.0513V18.6014Z" fill="#D80000"/>
<path d="M17.0513 20.5015H15.0511V22.4016H17.0513V20.5015Z" fill="#D80000"/>
<path d="M19.1513 16.7513H17.1012V18.6514H19.1513V16.7513Z" fill="#D80000"/>
<path d="M21.2015 16.7513H19.1513V18.6514H21.2015V16.7513Z" fill="#D80000"/>
<path d="M22.6015 16.7513H20.5513V18.6514H22.6015V16.7513Z" fill="#D80000"/>
<path d="M17.3012 14.9011H15.3011V16.8012H17.3012V14.9011Z" fill="#D80000"/>
<path d="M18.5514 14.9011H16.5512V16.8012H18.5514V14.9011Z" fill="#D80000"/>
<path d="M20.5514 14.9012H18.5513V16.8013H20.5514V14.9012Z" fill="#D80000"/>
<path d="M22.5516 14.9012H20.5514V16.8013H22.5516V14.9012Z" fill="#D80000"/>
<path d="M24.5018 14.9012H22.5017V16.8013H24.5018V14.9012Z" fill="#D80000"/>
<path d="M16.6014 13.0511H14.6512V14.9512H16.6014V13.0511Z" fill="#D80000"/>
<path d="M18.5513 13.0511H16.6012V14.9512H18.5513V13.0511Z" fill="#D80000"/>
<path d="M20.5016 13.0511H18.5515V14.9512H20.5016V13.0511Z" fill="#D80000"/>
<path d="M22.4517 13.0511H20.5016V14.9512H22.4517V13.0511Z" fill="#D80000"/>
<path d="M24.4018 13.0511H22.4517V14.9512H24.4018V13.0511Z" fill="#D80000"/>
<path d="M26.3519 13.0511H24.4018V14.9512H26.3519V13.0511Z" fill="#D80000"/>
<path d="M13.3009 11.2008H11.3508V13.1009H13.3009V11.2008Z" fill="#D80000"/>
<path d="M15.251 11.2008H13.3009V13.1009H15.251V11.2008Z" fill="#D80000"/>
<path d="M18.5013 11.2008H16.5512V13.1009H18.5013V11.2008Z" fill="#D80000"/>
<path d="M17.2012 11.2008H15.251V13.1009H17.2012V11.2008Z" fill="#D80000"/>
<path d="M20.4516 11.2008H18.5015V13.1009H20.4516V11.2008Z" fill="#D80000"/>
<path d="M22.4517 11.2008H20.4516V13.1009H22.4517V11.2008Z" fill="#D80000"/>
<path d="M24.4018 11.2008H22.4517V13.1009H24.4018V11.2008Z" fill="#D80000"/>
<path d="M26.3519 11.2008H24.4018V13.1009H26.3519V11.2008Z" fill="#D80000"/>
<path d="M28.252 11.2008H26.3519V13.1009H28.252V11.2008Z" fill="#D80000"/>
<path d="M13.2009 9.35056H11.3008V11.2507H13.2009V9.35056Z" fill="#D80000"/>
<path d="M17.0011 9.35056H15.101V11.2507H17.0011V9.35056Z" fill="#D80000"/>
<path d="M20.7015 9.35056H18.8013V11.2507H20.7015V9.35056Z" fill="#D80000"/>
<path d="M18.9012 9.35056H17.0011V11.2507H18.9012V9.35056Z" fill="#D80000"/>
<path d="M22.5517 9.35056H20.6516V11.2507H22.5517V9.35056Z" fill="#D80000"/>
<path d="M15.101 9.35056H13.2009V11.2507H15.101V9.35056Z" fill="#D80000"/>
<path d="M13.2009 9.35056H11.3008V11.2507H13.2009V9.35056Z" fill="#D80000"/>
<path d="M15.0511 5.6004H13.1509V7.50054H15.0511V5.6004Z" fill="#D80000"/>
<path d="M13.1509 5.65042H11.2508V7.55056H13.1509V5.65042Z" fill="#D80000"/>
<path d="M11.2508 5.65036H9.35068V7.5505H11.2508V5.65036Z" fill="#D80000"/>
<path d="M18.8514 7.45053H16.9512V9.35067H18.8514V7.45053Z" fill="#D80000"/>
<path d="M20.7515 7.45053H18.8514V9.35067H20.7515V7.45053Z" fill="#D80000"/>
<path d="M22.6517 7.45053H20.7515V9.35067H22.6517V7.45053Z" fill="#D80000"/>
<path d="M24.3518 7.45053H22.4516V9.35067H24.3518V7.45053Z" fill="#D80000"/>
<path d="M22.6017 1.85013H20.7015V3.75027H22.6017V1.85013Z" fill="#D80000"/>
<path d="M20.7015 3.70026H18.8014V5.6004H20.7015V3.70026Z" fill="#D80000"/>
<path d="M22.6016 3.70026H20.7015V5.6004H22.6016V3.70026Z" fill="#D80000"/>
<path d="M24.4518 3.70023H22.5516V5.60037H24.4518V3.70023Z" fill="#D80000"/>
<path d="M26.3519 3.70016H24.4518V5.6003H26.3519V3.70016Z" fill="#D80000"/>
<path d="M28.252 3.70013H26.3519V5.60027H28.252V3.70013Z" fill="#D80000"/>
<path d="M26.3519 1.8501H24.4518V3.75024H26.3519V1.8501Z" fill="#D80000"/>
<path d="M24.4518 1.85004H22.5517V3.75018H24.4518V1.85004Z" fill="#D80000"/>
<path d="M16.9513 7.45053H15.0511V9.35067H16.9513V7.45053Z" fill="#D80000"/>
<path d="M9.40066 7.45053H7.50052V9.35067H9.40066V7.45053Z" fill="#D80000"/>
<path d="M9.40054 9.35068H7.5004V11.2508H9.40054V9.35068Z" fill="#D80000"/>
<path d="M9.40066 11.2008H7.50052V13.101H9.40066V11.2008Z" fill="#D80000"/>
<path d="M5.63278 5.65039H3.75027V7.53053H5.63278V5.65039Z" fill="#D80000"/>
<path d="M5.63257 7.50052H3.75006V9.40066H5.63257V7.50052Z" fill="#D80000"/>
<path d="M7.50054 5.6004H5.6004V7.48054H7.50054V5.6004Z" fill="#D80000"/>
<path d="M7.50054 7.4505H5.6004V9.35064H7.50054V7.4505Z" fill="#D80000"/>
<path d="M7.50033 9.35074H5.60019V11.2509H7.50033V9.35074Z" fill="#D80000"/>
<path d="M7.5329 3.75027H5.65039V5.63041H7.5329V3.75027Z" fill="#D80000"/>
<path d="M7.5329 13.101H5.65039V14.9812H7.5329V13.101Z" fill="#7F171B"/>
<path d="M9.40066 14.9511H7.50052V16.8313H9.40066V14.9511Z" fill="#7F171B"/>
<path d="M11.2832 16.8013H9.40067V18.6814H11.2832V16.8013Z" fill="#7F171B"/>
<path d="M11.3008 14.9511H9.40067V16.8313H11.3008V14.9511Z" fill="#7F171B"/>
<path d="M13.1583 18.6514H11.2758V20.5315H13.1583V18.6514Z" fill="#7F171B"/>
<path d="M13.1333 16.8013H11.2508V18.6814H13.1333V16.8013Z" fill="#7F171B"/>
<path d="M15.0511 20.5515H13.1509V22.4317H15.0511V20.5515Z" fill="#7F171B"/>
<path d="M16.9386 22.3517H15.0561V24.2318H16.9386V22.3517Z" fill="#7F171B"/>
<path d="M15.0511 18.6514H13.1509V20.5516H15.0511V18.6514Z" fill="#7F171B"/>
<path d="M9.40066 13.101H7.50052V14.9812H9.40066V13.101Z" fill="#7F171B"/>
<path d="M7.50054 11.2509H5.6004V13.131H7.50054V11.2509Z" fill="#7F171B"/>
</svg>
