<svg width="33" height="32" viewBox="0 0 33 32" fill="none" xmlns="http://www.w3.org/2000/svg">
<path d="M27.3104 10.2414H26.1724V11.3793H27.3104V10.2414Z" fill="#49494B"/>
<path d="M11.3793 29.5862H10.2414V30.7241H11.3793V29.5862Z" fill="#49494B"/>
<path d="M9.10345 29.5862H7.96552V30.7241H9.10345V29.5862Z" fill="#49494B"/>
<path d="M9.10345 28.4483H7.96552V29.5862H9.10345V28.4483Z" fill="#49494B"/>
<path d="M7.96551 28.4483H6.82758V29.5862H7.96551V28.4483Z" fill="#49494B"/>
<path d="M10.2414 29.5862H9.10345V30.7241H10.2414V29.5862Z" fill="#49494B"/>
<path d="M11.3793 30.7241H10.2414V31.8621H11.3793V30.7241Z" fill="#49494B"/>
<path d="M27.3104 11.3793H26.1724V12.5172H27.3104V11.3793Z" fill="#49494B"/>
<path d="M26.1724 10.2414H25.0345V11.3793H26.1724V10.2414Z" fill="#49494B"/>
<path d="M27.3104 7.96555H26.1724V9.10348H27.3104V7.96555Z" fill="#49494B"/>
<path d="M27.3104 9.10345H26.1724V10.2414H27.3104V9.10345Z" fill="#49494B"/>
<path d="M28.4483 11.3793H27.3104V12.5172H28.4483V11.3793Z" fill="#49494B"/>
<path d="M28.4483 18.2069H27.3104V19.3448H28.4483V18.2069Z" fill="#49494B"/>
<path d="M26.1724 22.7586H25.0345V23.8966H26.1724V22.7586Z" fill="#49494B"/>
<path d="M25.0345 22.7586H23.8965V23.8966H25.0345V22.7586Z" fill="#49494B"/>
<path d="M23.8965 22.7586H22.7586V23.8966H23.8965V22.7586Z" fill="#49494B"/>
<path d="M22.7586 22.7586H21.6207V23.8966H22.7586V22.7586Z" fill="#49494B"/>
<path d="M21.6207 22.7586H20.4827V23.8966H21.6207V22.7586Z" fill="#49494B"/>
<path d="M20.4827 22.7586H19.3448V23.8966H20.4827V22.7586Z" fill="#49494B"/>
<path d="M20.4827 22.7586H19.3448V23.8966H20.4827V22.7586Z" fill="#49494B"/>
<path d="M22.7586 30.7241H21.6207V31.8621H22.7586V30.7241Z" fill="#49494B"/>
<path d="M23.8965 25.0345H22.7586V26.1724H23.8965V25.0345Z" fill="#49494B"/>
<path d="M23.8965 26.1724H22.7586V27.3104H23.8965V26.1724Z" fill="#49494B"/>
<path d="M23.8965 27.3104H22.7586V28.4483H23.8965V27.3104Z" fill="#49494B"/>
<path d="M23.8965 28.4483H22.7586V29.5862H23.8965V28.4483Z" fill="#49494B"/>
<path d="M23.8965 29.5862H22.7586V30.7241H23.8965V29.5862Z" fill="#49494B"/>
<path d="M23.8965 30.7241H22.7586V31.8621H23.8965V30.7241Z" fill="#49494B"/>
<path d="M23.8965 30.7241H22.7586V31.8621H23.8965V30.7241Z" fill="#49494B"/>
<path d="M25.0345 26.1724H23.8965V27.3104H25.0345V26.1724Z" fill="#49494B"/>
<path d="M25.0345 27.3104H23.8965V28.4483H25.0345V27.3104Z" fill="#49494B"/>
<path d="M25.0345 28.4483H23.8965V29.5862H25.0345V28.4483Z" fill="#49494B"/>
<path d="M26.1724 26.1724H25.0345V27.3104H26.1724V26.1724Z" fill="#49494B"/>
<path d="M26.1724 27.3104H25.0345V28.4483H26.1724V27.3104Z" fill="#49494B"/>
<path d="M27.3104 26.1724H26.1724V27.3104H27.3104V26.1724Z" fill="#49494B"/>
<path d="M27.3104 27.3104H26.1724V28.4483H27.3104V27.3104Z" fill="#49494B"/>
<path d="M26.1724 28.4483H25.0345V29.5862H26.1724V28.4483Z" fill="#49494B"/>
<path d="M27.3104 28.4483H26.1724V29.5862H27.3104V28.4483Z" fill="#49494B"/>
<path d="M28.4483 26.1724H27.3104V27.3104H28.4483V26.1724Z" fill="#49494B"/>
<path d="M26.1724 29.5862H25.0345V30.7241H26.1724V29.5862Z" fill="#49494B"/>
<path d="M25.0345 29.5862H23.8965V30.7241H25.0345V29.5862Z" fill="#49494B"/>
<path d="M12.5173 29.5862H11.3793V30.7241H12.5173V29.5862Z" fill="#49494B"/>
<path d="M12.5173 30.7241H11.3793V31.8621H12.5173V30.7241Z" fill="#49494B"/>
<path d="M5.68969 25.0345H4.55176V26.1724H5.68969V25.0345Z" fill="#49494B"/>
<path d="M4.55175 26.1724H3.41382V27.3104H4.55175V26.1724Z" fill="#49494B"/>
<path d="M7.96551 29.5862H6.82758V30.7241H7.96551V29.5862Z" fill="#49494B"/>
<path d="M5.68969 26.1724H4.55176V27.3104H5.68969V26.1724Z" fill="#49494B"/>
<path d="M5.68969 27.3104H4.55176V28.4483H5.68969V27.3104Z" fill="#49494B"/>
<path d="M6.82757 27.3104H5.68964V28.4483H6.82757V27.3104Z" fill="#49494B"/>
<path d="M6.82757 28.4483H5.68964V29.5862H6.82757V28.4483Z" fill="#49494B"/>
<path d="M22.7586 29.5862H21.6207V30.7241H22.7586V29.5862Z" fill="#49494B"/>
<path d="M22.7586 28.4483H21.6207V29.5862H22.7586V28.4483Z" fill="#49494B"/>
<path d="M22.7586 27.3104H21.6207V28.4483H22.7586V27.3104Z" fill="#49494B"/>
<path d="M22.7586 26.1724H21.6207V27.3104H22.7586V26.1724Z" fill="#49494B"/>
<path d="M22.7586 25.0345H21.6207V26.1724H22.7586V25.0345Z" fill="#49494B"/>
<path d="M23.8965 23.8966H22.7586V25.0345H23.8965V23.8966Z" fill="#49494B"/>
<path d="M22.7586 23.8966H21.6207V25.0345H22.7586V23.8966Z" fill="#49494B"/>
<path d="M26.1724 25.0345H25.0345V26.1724H26.1724V25.0345Z" fill="#49494B"/>
<path d="M25.0345 25.0345H23.8965V26.1724H25.0345V25.0345Z" fill="#49494B"/>
<path d="M26.1724 23.8966H25.0345V25.0345H26.1724V23.8966Z" fill="#49494B"/>
<path d="M25.0345 23.8966H23.8965V25.0345H25.0345V23.8966Z" fill="#49494B"/>
<path d="M28.4483 22.7586H27.3104V23.8966H28.4483V22.7586Z" fill="#49494B"/>
<path d="M27.3104 22.7586H26.1724V23.8966H27.3104V22.7586Z" fill="#49494B"/>
<path d="M28.4483 25.0345H27.3104V26.1724H28.4483V25.0345Z" fill="#49494B"/>
<path d="M27.3104 25.0345H26.1724V26.1724H27.3104V25.0345Z" fill="#49494B"/>
<path d="M28.4483 23.8966H27.3104V25.0345H28.4483V23.8966Z" fill="#49494B"/>
<path d="M27.3104 23.8966H26.1724V25.0345H27.3104V23.8966Z" fill="#49494B"/>
<path d="M21.6207 23.8966H20.4827V25.0345H21.6207V23.8966Z" fill="#49494B"/>
<path d="M28.4483 21.6207H27.3104V22.7586H28.4483V21.6207Z" fill="#49494B"/>
<path d="M27.3104 21.6207H26.1724V22.7586H27.3104V21.6207Z" fill="#49494B"/>
<path d="M26.1724 21.6207H25.0345V22.7586H26.1724V21.6207Z" fill="#49494B"/>
<path d="M25.0345 21.6207H23.8965V22.7586H25.0345V21.6207Z" fill="#49494B"/>
<path d="M28.4483 20.4828H27.3104V21.6207H28.4483V20.4828Z" fill="#49494B"/>
<path d="M27.3104 20.4828H26.1724V21.6207H27.3104V20.4828Z" fill="#49494B"/>
<path d="M28.4483 20.4828H27.3104V19.3448H28.4483V20.4828Z" fill="#49494B"/>
<path d="M26.1724 20.4828H25.0345V21.6207H26.1724V20.4828Z" fill="#49494B"/>
<path d="M27.3104 19.3448H26.1724V20.4827H27.3104V19.3448Z" fill="#49494B"/>
<path d="M28.4483 17.069H27.3104V18.2069H28.4483V17.069Z" fill="#49494B"/>
<path d="M28.4483 15.931H27.3104V17.069H28.4483V15.931Z" fill="#49494B"/>
<path d="M28.4483 14.7931H27.3104V15.931H28.4483V14.7931Z" fill="#49494B"/>
<path d="M28.4483 13.6552H27.3104V14.7931H28.4483V13.6552Z" fill="#49494B"/>
<path d="M28.4483 12.5172H27.3104V13.6552H28.4483V12.5172Z" fill="#49494B"/>
<path d="M7.96551 6.82761H6.82758V7.96554H7.96551V6.82761Z" fill="white"/>
<path d="M20.4827 6.82761H19.3448V7.96554H20.4827V6.82761Z" fill="#49494B"/>
<path d="M19.3448 6.82761H18.2069V7.96554H19.3448V6.82761Z" fill="#49494B"/>
<path d="M18.2069 6.82761H17.069V7.96554H18.2069V6.82761Z" fill="#49494B"/>
<path d="M17.069 6.82761H15.9311V7.96554H17.069V6.82761Z" fill="#49494B"/>
<path d="M15.9311 6.82761H14.7932V7.96554H15.9311V6.82761Z" fill="#49494B"/>
<path d="M14.7931 6.82761H13.6552V7.96554H14.7931V6.82761Z" fill="#49494B"/>
<path d="M13.6552 6.82761H12.5173V7.96554H13.6552V6.82761Z" fill="#49494B"/>
<path d="M12.5173 6.82761H11.3793V7.96554H12.5173V6.82761Z" fill="#49494B"/>
<path d="M12.5173 5.68967H11.3793V6.8276H12.5173V5.68967Z" fill="#49494B"/>
<path d="M11.3793 5.68967H10.2414V6.8276H11.3793V5.68967Z" fill="#49494B"/>
<path d="M10.2414 5.68967H9.10345V6.8276H10.2414V5.68967Z" fill="#49494B"/>
<path d="M9.10345 5.68967H7.96552V6.8276H9.10345V5.68967Z" fill="#49494B"/>
<path d="M7.96551 5.68967H6.82758V6.8276H7.96551V5.68967Z" fill="#49494B"/>
<path d="M7.96551 6.82761H6.82758V7.96554H7.96551V6.82761Z" fill="#49494B"/>
<path d="M7.96551 7.96555H6.82758V9.10348H7.96551V7.96555Z" fill="#49494B"/>
<path d="M7.96551 9.10345H6.82758V10.2414H7.96551V9.10345Z" fill="#49494B"/>
<path d="M7.96551 10.2414H6.82758V11.3793H7.96551V10.2414Z" fill="#49494B"/>
<path d="M7.96551 10.2414H6.82758V12.5172H7.96551V10.2414Z" fill="#49494B"/>
<path d="M7.96551 11.3793H6.82758V12.5172H7.96551V11.3793Z" fill="#49494B"/>
<path d="M6.82757 11.3793H5.68964V12.5172H6.82757V11.3793Z" fill="#49494B"/>
<path d="M6.82757 12.5172H5.68964V13.6552H6.82757V12.5172Z" fill="#49494B"/>
<path d="M6.82757 18.2069H5.68964V19.3448H6.82757V18.2069Z" fill="#49494B"/>
<path d="M6.82757 10.2414H5.68964V11.3793H6.82757V10.2414Z" fill="#49494B"/>
<path d="M6.82757 10.2414H5.68964V11.3793H6.82757V10.2414Z" fill="#49494B"/>
<path d="M6.82757 5.68967H5.68964V6.8276H6.82757V5.68967Z" fill="#49494B"/>
<path d="M6.82757 6.82761H5.68964V7.96554H6.82757V6.82761Z" fill="#49494B"/>
<path d="M6.82757 7.96555H5.68964V9.10348H6.82757V7.96555Z" fill="#49494B"/>
<path d="M6.82757 9.10345H5.68964V10.2414H6.82757V9.10345Z" fill="#49494B"/>
<path d="M9.10345 21.6207H7.96552V22.7586H9.10345V21.6207Z" fill="#49494B"/>
<path d="M7.96551 21.6207H6.82758V22.7586H7.96551V21.6207Z" fill="#49494B"/>
<path d="M6.82757 21.6207H5.68964V22.7586H6.82757V21.6207Z" fill="#49494B"/>
<path d="M7.96551 20.4828H6.82758V21.6207H7.96551V20.4828Z" fill="#49494B"/>
<path d="M6.82757 20.4828H5.68964V21.6207H6.82757V20.4828Z" fill="#49494B"/>
<path d="M10.2414 21.6207H9.10345V22.7586H10.2414V21.6207Z" fill="#49494B"/>
<path d="M10.2414 21.6207H9.10345V22.7586H10.2414V21.6207Z" fill="#49494B"/>
<path d="M13.6552 23.8966H12.5173V25.0345H13.6552V23.8966Z" fill="#49494B"/>
<path d="M12.5173 23.8966H11.3793V25.0345H12.5173V23.8966Z" fill="#49494B"/>
<path d="M5.68969 22.7586H4.55176V23.8966H5.68969V22.7586Z" fill="#49494B"/>
<path d="M3.41381 22.7586H2.27588V23.8966H3.41381V22.7586Z" fill="#49494B"/>
<path d="M4.55175 23.8966H3.41382V25.0345H4.55175V23.8966Z" fill="#49494B"/>
<path d="M4.55175 22.7586H3.41382V23.8966H4.55175V22.7586Z" fill="#49494B"/>
<path d="M6.82757 22.7586H5.68964V23.8966H6.82757V22.7586Z" fill="#49494B"/>
<path d="M7.96551 23.8966H6.82758V25.0345H7.96551V23.8966Z" fill="#49494B"/>
<path d="M4.55175 25.0345H3.41382V26.1724H4.55175V25.0345Z" fill="#49494B"/>
<path d="M3.41381 23.8966H2.27588V25.0345H3.41381V23.8966Z" fill="#49494B"/>
<path d="M3.41381 25.0345H2.27588V26.1724H3.41381V25.0345Z" fill="#49494B"/>
<path d="M7.96551 22.7586H6.82758V23.8966H7.96551V22.7586Z" fill="#49494B"/>
<path d="M9.10345 22.7586H7.96552V23.8966H9.10345V22.7586Z" fill="#49494B"/>
<path d="M9.10345 23.8966H7.96552V25.0345H9.10345V23.8966Z" fill="#49494B"/>
<path d="M6.82757 26.1724H5.68964V27.3104H6.82757V26.1724Z" fill="#49494B"/>
<path d="M9.10345 25.0345H7.96552V26.1724H9.10345V25.0345Z" fill="#49494B"/>
<path d="M10.2414 25.0345H9.10345V26.1724H10.2414V25.0345Z" fill="#49494B"/>
<path d="M10.2414 26.1724H9.10345V27.3104H10.2414V26.1724Z" fill="#49494B"/>
<path d="M11.3793 26.1724H10.2414V27.3104H11.3793V26.1724Z" fill="#49494B"/>
<path d="M11.3793 25.0345H10.2414V26.1724H11.3793V25.0345Z" fill="#49494B"/>
<path d="M12.5173 26.1724H11.3793V27.3104H12.5173V26.1724Z" fill="#49494B"/>
<path d="M12.5173 25.0345H11.3793V26.1724H12.5173V25.0345Z" fill="#49494B"/>
<path d="M11.3793 23.8966H10.2414V25.0345H11.3793V23.8966Z" fill="#49494B"/>
<path d="M10.2414 23.8966H9.10345V25.0345H10.2414V23.8966Z" fill="#49494B"/>
<path d="M14.7931 22.7586H13.6552V23.8966H14.7931V22.7586Z" fill="#49494B"/>
<path d="M13.6552 22.7586H12.5173V23.8966H13.6552V22.7586Z" fill="#49494B"/>
<path d="M12.5173 22.7586H11.3793V23.8966H12.5173V22.7586Z" fill="#49494B"/>
<path d="M11.3793 22.7586H10.2414V23.8966H11.3793V22.7586Z" fill="#49494B"/>
<path d="M10.2414 22.7586H9.10345V23.8966H10.2414V22.7586Z" fill="#49494B"/>
<path d="M9.10345 20.4828H7.96552V21.6207H9.10345V20.4828Z" fill="#49494B"/>
<path d="M7.96551 19.3448H6.82758V20.4827H7.96551V19.3448Z" fill="#49494B"/>
<path d="M6.82757 19.3448H5.68964V20.4827H6.82757V19.3448Z" fill="#49494B"/>
<path d="M6.82757 17.069H5.68964V18.2069H6.82757V17.069Z" fill="#49494B"/>
<path d="M6.82757 15.931H5.68964V17.069H6.82757V15.931Z" fill="#49494B"/>
<path d="M6.82757 14.7931H5.68964V15.931H6.82757V14.7931Z" fill="#49494B"/>
<path d="M6.82757 13.6552H5.68964V14.7931H6.82757V13.6552Z" fill="#49494B"/>
<path d="M3.41381 11.3793H2.27588V12.5172H3.41381V11.3793Z" fill="#49494B"/>
<path d="M3.41381 12.5172H2.27588V13.6552H3.41381V12.5172Z" fill="#49494B"/>
<path d="M3.41381 18.2069H2.27588V19.3448H3.41381V18.2069Z" fill="#49494B"/>
<path d="M3.41381 10.2414H2.27588V11.3793H3.41381V10.2414Z" fill="#49494B"/>
<path d="M3.41381 10.2414H2.27588V11.3793H3.41381V10.2414Z" fill="#49494B"/>
<path d="M3.41381 7.96555H2.27588V9.10348H3.41381V7.96555Z" fill="#49494B"/>
<path d="M3.41381 9.10345H2.27588V10.2414H3.41381V9.10345Z" fill="#49494B"/>
<path d="M3.41381 21.6207H2.27588V22.7586H3.41381V21.6207Z" fill="#49494B"/>
<path d="M3.41381 20.4828H2.27588V21.6207H3.41381V20.4828Z" fill="#49494B"/>
<path d="M3.41381 19.3448H2.27588V20.4827H3.41381V19.3448Z" fill="#49494B"/>
<path d="M3.41381 17.069H2.27588V18.2069H3.41381V17.069Z" fill="#49494B"/>
<path d="M3.41381 15.931H2.27588V17.069H3.41381V15.931Z" fill="#49494B"/>
<path d="M3.41381 14.7931H2.27588V15.931H3.41381V14.7931Z" fill="#49494B"/>
<path d="M3.41381 13.6552H2.27588V14.7931H3.41381V13.6552Z" fill="#49494B"/>
<path d="M33 20.4828H31.8621V21.6207H33V20.4828Z" fill="#49494B"/>
<path d="M2.27587 22.7586H1.13794V23.8966H2.27587V22.7586Z" fill="#49494B"/>
<path d="M2.27587 11.3793H1.13794V12.5172H2.27587V11.3793Z" fill="#49494B"/>
<path d="M2.27587 12.5172H1.13794V13.6552H2.27587V12.5172Z" fill="#49494B"/>
<path d="M2.27587 18.2069H1.13794V19.3448H2.27587V18.2069Z" fill="#49494B"/>
<path d="M2.27587 10.2414H1.13794V11.3793H2.27587V10.2414Z" fill="#49494B"/>
<path d="M2.27587 10.2414H1.13794V11.3793H2.27587V10.2414Z" fill="#49494B"/>
<path d="M2.27587 9.10345H1.13794V10.2414H2.27587V9.10345Z" fill="#49494B"/>
<path d="M2.27587 21.6207H1.13794V22.7586H2.27587V21.6207Z" fill="#49494B"/>
<path d="M2.27587 20.4828H1.13794V21.6207H2.27587V20.4828Z" fill="#49494B"/>
<path d="M2.27587 19.3448H1.13794V20.4827H2.27587V19.3448Z" fill="#49494B"/>
<path d="M2.27587 17.069H1.13794V18.2069H2.27587V17.069Z" fill="#49494B"/>
<path d="M2.27587 15.931H1.13794V17.069H2.27587V15.931Z" fill="#49494B"/>
<path d="M2.27587 14.7931H1.13794V15.931H2.27587V14.7931Z" fill="#49494B"/>
<path d="M2.27587 13.6552H1.13794V14.7931H2.27587V13.6552Z" fill="#49494B"/>
<path d="M4.55175 11.3793H3.41382V12.5172H4.55175V11.3793Z" fill="#49494B"/>
<path d="M4.55175 12.5172H3.41382V13.6552H4.55175V12.5172Z" fill="#49494B"/>
<path d="M4.55175 18.2069H3.41382V19.3448H4.55175V18.2069Z" fill="#49494B"/>
<path d="M4.55175 10.2414H3.41382V11.3793H4.55175V10.2414Z" fill="#49494B"/>
<path d="M4.55175 10.2414H3.41382V11.3793H4.55175V10.2414Z" fill="#49494B"/>
<path d="M4.55175 5.68967H3.41382V6.8276H4.55175V5.68967Z" fill="#49494B"/>
<path d="M4.55175 6.82761H3.41382V7.96554H4.55175V6.82761Z" fill="#49494B"/>
<path d="M4.55175 7.96555H3.41382V9.10348H4.55175V7.96555Z" fill="#49494B"/>
<path d="M4.55175 9.10345H3.41382V10.2414H4.55175V9.10345Z" fill="#49494B"/>
<path d="M4.55175 21.6207H3.41382V22.7586H4.55175V21.6207Z" fill="#49494B"/>
<path d="M4.55175 20.4828H3.41382V21.6207H4.55175V20.4828Z" fill="#49494B"/>
<path d="M4.55175 19.3448H3.41382V20.4827H4.55175V19.3448Z" fill="#49494B"/>
<path d="M4.55175 17.069H3.41382V18.2069H4.55175V17.069Z" fill="#49494B"/>
<path d="M4.55175 15.931H3.41382V17.069H4.55175V15.931Z" fill="#49494B"/>
<path d="M4.55175 14.7931H3.41382V15.931H4.55175V14.7931Z" fill="#49494B"/>
<path d="M4.55175 13.6552H3.41382V14.7931H4.55175V13.6552Z" fill="#49494B"/>
<path d="M5.68969 11.3793H4.55176V12.5172H5.68969V11.3793Z" fill="#49494B"/>
<path d="M5.68969 12.5172H4.55176V13.6552H5.68969V12.5172Z" fill="#49494B"/>
<path d="M5.68969 18.2069H4.55176V19.3448H5.68969V18.2069Z" fill="#49494B"/>
<path d="M5.68969 10.2414H4.55176V11.3793H5.68969V10.2414Z" fill="#49494B"/>
<path d="M5.68969 10.2414H4.55176V11.3793H5.68969V10.2414Z" fill="#49494B"/>
<path d="M5.68969 5.68967H4.55176V6.8276H5.68969V5.68967Z" fill="#49494B"/>
<path d="M5.68969 6.82761H4.55176V7.96554H5.68969V6.82761Z" fill="#49494B"/>
<path d="M5.68969 7.96555H4.55176V9.10348H5.68969V7.96555Z" fill="#49494B"/>
<path d="M5.68969 9.10345H4.55176V10.2414H5.68969V9.10345Z" fill="#49494B"/>
<path d="M5.68969 21.6207H4.55176V22.7586H5.68969V21.6207Z" fill="#49494B"/>
<path d="M5.68969 20.4828H4.55176V21.6207H5.68969V20.4828Z" fill="#49494B"/>
<path d="M5.68969 19.3448H4.55176V20.4827H5.68969V19.3448Z" fill="#49494B"/>
<path d="M5.68969 17.069H4.55176V18.2069H5.68969V17.069Z" fill="#49494B"/>
<path d="M5.68969 15.931H4.55176V17.069H5.68969V15.931Z" fill="#49494B"/>
<path d="M5.68969 14.7931H4.55176V15.931H5.68969V14.7931Z" fill="#49494B"/>
<path d="M5.68969 13.6552H4.55176V14.7931H5.68969V13.6552Z" fill="#49494B"/>
<path d="M9.10345 10.2414H7.96552V11.3793H9.10345V10.2414Z" fill="#49494B"/>
<path d="M13.6552 7.96555H12.5173V9.10348H13.6552V7.96555Z" fill="#49494B"/>
<path d="M27.3104 6.82761H26.1724V7.96554H27.3104V6.82761Z" fill="#49494B"/>
<path d="M27.3104 5.68967H26.1724V6.8276H27.3104V5.68967Z" fill="#49494B"/>
<path d="M27.3104 10.2414H26.1724V11.3793H27.3104V10.2414Z" fill="#49494B"/>
<path d="M27.3104 7.96555H26.1724V9.10348H27.3104V7.96555Z" fill="#49494B"/>
<path d="M27.3104 9.10345H26.1724V10.2414H27.3104V9.10345Z" fill="#49494B"/>
<path d="M27.3104 6.82761H26.1724V7.96554H27.3104V6.82761Z" fill="#49494B"/>
<path d="M27.3104 5.68967H26.1724V6.8276H27.3104V5.68967Z" fill="#49494B"/>
<path d="M28.4483 10.2414H27.3104V11.3793H28.4483V10.2414Z" fill="#49494B"/>
<path d="M28.4483 7.96555H27.3104V9.10348H28.4483V7.96555Z" fill="#49494B"/>
<path d="M28.4483 9.10345H27.3104V10.2414H28.4483V9.10345Z" fill="#49494B"/>
<path d="M28.4483 6.82761H27.3104V7.96554H28.4483V6.82761Z" fill="#49494B"/>
<path d="M28.4483 5.68967H27.3104V6.8276H28.4483V5.68967Z" fill="#49494B"/>
<path d="M29.5862 11.3793H28.4482V12.5172H29.5862V11.3793Z" fill="#49494B"/>
<path d="M29.5862 18.2069H28.4482V19.3448H29.5862V18.2069Z" fill="#49494B"/>
<path d="M29.5862 22.7586H28.4482V23.8966H29.5862V22.7586Z" fill="#49494B"/>
<path d="M29.5862 23.8966H28.4482V25.0345H29.5862V23.8966Z" fill="#49494B"/>
<path d="M29.5862 21.6207H28.4482V22.7586H29.5862V21.6207Z" fill="#49494B"/>
<path d="M29.5862 20.4828H28.4482V21.6207H29.5862V20.4828Z" fill="#49494B"/>
<path d="M29.5862 20.4828H28.4482V19.3448H29.5862V20.4828Z" fill="#49494B"/>
<path d="M29.5862 17.069H28.4482V18.2069H29.5862V17.069Z" fill="#49494B"/>
<path d="M29.5862 15.931H28.4482V17.069H29.5862V15.931Z" fill="#49494B"/>
<path d="M29.5862 14.7931H28.4482V15.931H29.5862V14.7931Z" fill="#49494B"/>
<path d="M29.5862 13.6552H28.4482V14.7931H29.5862V13.6552Z" fill="#49494B"/>
<path d="M29.5862 12.5172H28.4482V13.6552H29.5862V12.5172Z" fill="#49494B"/>
<path d="M29.5862 10.2414H28.4482V11.3793H29.5862V10.2414Z" fill="#49494B"/>
<path d="M29.5862 7.96555H28.4482V9.10348H29.5862V7.96555Z" fill="#49494B"/>
<path d="M29.5862 9.10345H28.4482V10.2414H29.5862V9.10345Z" fill="#49494B"/>
<path d="M29.5862 6.82761H28.4482V7.96554H29.5862V6.82761Z" fill="#49494B"/>
<path d="M29.5862 5.68967H28.4482V6.8276H29.5862V5.68967Z" fill="#49494B"/>
<path d="M30.7241 11.3793H29.5862V12.5172H30.7241V11.3793Z" fill="#49494B"/>
<path d="M30.7241 18.2069H29.5862V19.3448H30.7241V18.2069Z" fill="#49494B"/>
<path d="M30.7241 22.7586H29.5862V23.8966H30.7241V22.7586Z" fill="#49494B"/>
<path d="M30.7241 25.0345H29.5862V26.1724H30.7241V25.0345Z" fill="#49494B"/>
<path d="M30.7241 23.8966H29.5862V25.0345H30.7241V23.8966Z" fill="#49494B"/>
<path d="M30.7241 21.6207H29.5862V22.7586H30.7241V21.6207Z" fill="#49494B"/>
<path d="M30.7241 20.4828H29.5862V21.6207H30.7241V20.4828Z" fill="#49494B"/>
<path d="M30.7241 20.4828H29.5862V19.3448H30.7241V20.4828Z" fill="#49494B"/>
<path d="M30.7241 17.069H29.5862V18.2069H30.7241V17.069Z" fill="#49494B"/>
<path d="M30.7241 15.931H29.5862V17.069H30.7241V15.931Z" fill="#49494B"/>
<path d="M30.7241 14.7931H29.5862V15.931H30.7241V14.7931Z" fill="#49494B"/>
<path d="M30.7241 13.6552H29.5862V14.7931H30.7241V13.6552Z" fill="#49494B"/>
<path d="M30.7241 12.5172H29.5862V13.6552H30.7241V12.5172Z" fill="#49494B"/>
<path d="M30.7241 10.2414H29.5862V11.3793H30.7241V10.2414Z" fill="#49494B"/>
<path d="M30.7241 7.96555H29.5862V9.10348H30.7241V7.96555Z" fill="#49494B"/>
<path d="M30.7241 9.10345H29.5862V10.2414H30.7241V9.10345Z" fill="#49494B"/>
<path d="M30.7241 6.82761H29.5862V7.96554H30.7241V6.82761Z" fill="#49494B"/>
<path d="M29.5862 4.55173H28.4482V5.68966H29.5862V4.55173Z" fill="#49494B"/>
<path d="M33 11.3793H31.8621V12.5172H33V11.3793Z" fill="#49494B"/>
<path d="M33 18.2069H31.8621V19.3448H33V18.2069Z" fill="#49494B"/>
<path d="M33 20.4828H31.8621V19.3448H33V20.4828Z" fill="#49494B"/>
<path d="M33 17.069H31.8621V18.2069H33V17.069Z" fill="#49494B"/>
<path d="M33 15.931H31.8621V17.069H33V15.931Z" fill="#49494B"/>
<path d="M33 14.7931H31.8621V15.931H33V14.7931Z" fill="#49494B"/>
<path d="M33 13.6552H31.8621V14.7931H33V13.6552Z" fill="#49494B"/>
<path d="M33 12.5172H31.8621V13.6552H33V12.5172Z" fill="#49494B"/>
<path d="M33 18.2069H31.8621V19.3448H33V18.2069Z" fill="#49494B"/>
<path d="M33 17.069H31.8621V18.2069H33V17.069Z" fill="#49494B"/>
<path d="M33 15.931H31.8621V17.069H33V15.931Z" fill="#49494B"/>
<path d="M33 14.7931H31.8621V15.931H33V14.7931Z" fill="#49494B"/>
<path d="M33 13.6552H31.8621V14.7931H33V13.6552Z" fill="#49494B"/>
<path d="M33 12.5172H31.8621V13.6552H33V12.5172Z" fill="#49494B"/>
<path d="M1.13793 11.3793H0V12.5172H1.13793V11.3793Z" fill="#49494B"/>
<path d="M1.13793 18.2069H0V19.3448H1.13793V18.2069Z" fill="#49494B"/>
<path d="M1.13793 20.4828H0V19.3448H1.13793V20.4828Z" fill="#49494B"/>
<path d="M1.13793 17.069H0V18.2069H1.13793V17.069Z" fill="#49494B"/>
<path d="M1.13793 15.931H0V17.069H1.13793V15.931Z" fill="#49494B"/>
<path d="M1.13793 14.7931H0V15.931H1.13793V14.7931Z" fill="#49494B"/>
<path d="M1.13793 13.6552H0V14.7931H1.13793V13.6552Z" fill="#49494B"/>
<path d="M1.13793 12.5172H0V13.6552H1.13793V12.5172Z" fill="#49494B"/>
<path d="M29.5862 26.1724H28.4482V27.3104H29.5862V26.1724Z" fill="#49494B"/>
<path d="M31.8621 11.3793H30.7241V12.5172H31.8621V11.3793Z" fill="#49494B"/>
<path d="M31.8621 18.2069H30.7241V19.3448H31.8621V18.2069Z" fill="#49494B"/>
<path d="M31.8621 22.7586H30.7241V23.8966H31.8621V22.7586Z" fill="#49494B"/>
<path d="M29.5862 25.0345H28.4482V26.1724H29.5862V25.0345Z" fill="#49494B"/>
<path d="M31.8621 21.6207H30.7241V22.7586H31.8621V21.6207Z" fill="#49494B"/>
<path d="M31.8621 20.4828H30.7241V21.6207H31.8621V20.4828Z" fill="#49494B"/>
<path d="M31.8621 20.4828H30.7241V19.3448H31.8621V20.4828Z" fill="#49494B"/>
<path d="M31.8621 17.069H30.7241V18.2069H31.8621V17.069Z" fill="#49494B"/>
<path d="M31.8621 15.931H30.7241V17.069H31.8621V15.931Z" fill="#49494B"/>
<path d="M31.8621 14.7931H30.7241V15.931H31.8621V14.7931Z" fill="#49494B"/>
<path d="M31.8621 13.6552H30.7241V14.7931H31.8621V13.6552Z" fill="#49494B"/>
<path d="M31.8621 12.5172H30.7241V13.6552H31.8621V12.5172Z" fill="#49494B"/>
<path d="M31.8621 10.2414H30.7241V11.3793H31.8621V10.2414Z" fill="#49494B"/>
<path d="M28.4483 27.3104H27.3104V28.4483H28.4483V27.3104Z" fill="#49494B"/>
<path d="M31.8621 9.10345H30.7241V10.2414H31.8621V9.10345Z" fill="#49494B"/>
<path d="M10.2414 30.7241H9.10345V31.8621H10.2414V30.7241Z" fill="#49494B"/>
<path d="M28.4483 3.41379H27.3104V4.55172H28.4483V3.41379Z" fill="#49494B"/>
<path d="M26.1724 5.68967H25.0345V6.8276H26.1724V5.68967Z" fill="#49494B"/>
<path d="M23.8965 5.68967H22.7586V6.8276H23.8965V5.68967Z" fill="#49494B"/>
<path d="M22.7586 5.68967H21.6207V6.8276H22.7586V5.68967Z" fill="#49494B"/>
<path d="M25.0345 5.68967H23.8965V6.8276H25.0345V5.68967Z" fill="#49494B"/>
<path d="M21.6207 6.82761H20.4827V7.96554H21.6207V6.82761Z" fill="#49494B"/>
<path d="M21.6207 6.82761H20.4827V7.96554H21.6207V6.82761Z" fill="#49494B"/>
<path d="M20.4827 5.68967H19.3448V6.8276H20.4827V5.68967Z" fill="#49494B"/>
<path d="M19.3448 5.68967H18.2069V6.8276H19.3448V5.68967Z" fill="#49494B"/>
<path d="M18.2069 5.68967H17.069V6.8276H18.2069V5.68967Z" fill="#49494B"/>
<path d="M17.069 5.68967H15.9311V6.8276H17.069V5.68967Z" fill="#49494B"/>
<path d="M15.9311 5.68967H14.7932V6.8276H15.9311V5.68967Z" fill="#49494B"/>
<path d="M14.7931 5.68967H13.6552V6.8276H14.7931V5.68967Z" fill="#49494B"/>
<path d="M13.6552 5.68967H12.5173V6.8276H13.6552V5.68967Z" fill="#49494B"/>
<path d="M21.6207 5.68967H20.4827V6.8276H21.6207V5.68967Z" fill="#49494B"/>
<path d="M21.6207 5.68967H20.4827V6.8276H21.6207V5.68967Z" fill="#49494B"/>
<path d="M12.5173 4.55173H11.3793V5.68966H12.5173V4.55173Z" fill="#49494B"/>
<path d="M11.3793 4.55173H10.2414V5.68966H11.3793V4.55173Z" fill="#49494B"/>
<path d="M10.2414 4.55173H9.10345V5.68966H10.2414V4.55173Z" fill="#49494B"/>
<path d="M9.10345 4.55173H7.96552V5.68966H9.10345V4.55173Z" fill="#49494B"/>
<path d="M7.96551 4.55173H6.82758V5.68966H7.96551V4.55173Z" fill="#49494B"/>
<path d="M6.82757 4.55173H5.68964V5.68966H6.82757V4.55173Z" fill="#49494B"/>
<path d="M4.55175 4.55173H3.41382V5.68966H4.55175V4.55173Z" fill="#49494B"/>
<path d="M1.13793 20.4828H0V21.6207H1.13793V20.4828Z" fill="#49494B"/>
<path d="M5.68969 4.55173H4.55176V5.68966H5.68969V4.55173Z" fill="#49494B"/>
<path d="M27.3104 4.55173H26.1724V5.68966H27.3104V4.55173Z" fill="#49494B"/>
<path d="M27.3104 4.55173H26.1724V5.68966H27.3104V4.55173Z" fill="#49494B"/>
<path d="M28.4483 4.55173H27.3104V5.68966H28.4483V4.55173Z" fill="#49494B"/>
<path d="M26.1724 4.55173H25.0345V5.68966H26.1724V4.55173Z" fill="#49494B"/>
<path d="M23.8965 4.55173H22.7586V5.68966H23.8965V4.55173Z" fill="#49494B"/>
<path d="M22.7586 4.55173H21.6207V5.68966H22.7586V4.55173Z" fill="#49494B"/>
<path d="M25.0345 4.55173H23.8965V5.68966H25.0345V4.55173Z" fill="#49494B"/>
<path d="M20.4827 4.55173H19.3448V5.68966H20.4827V4.55173Z" fill="#49494B"/>
<path d="M19.3448 4.55173H18.2069V5.68966H19.3448V4.55173Z" fill="#49494B"/>
<path d="M18.2069 4.55173H17.069V5.68966H18.2069V4.55173Z" fill="#49494B"/>
<path d="M17.069 4.55173H15.9311V5.68966H17.069V4.55173Z" fill="#49494B"/>
<path d="M15.9311 4.55173H14.7932V5.68966H15.9311V4.55173Z" fill="#49494B"/>
<path d="M14.7931 4.55173H13.6552V5.68966H14.7931V4.55173Z" fill="#49494B"/>
<path d="M13.6552 4.55173H12.5173V5.68966H13.6552V4.55173Z" fill="#49494B"/>
<path d="M21.6207 4.55173H20.4827V5.68966H21.6207V4.55173Z" fill="#49494B"/>
<path d="M21.6207 4.55173H20.4827V5.68966H21.6207V4.55173Z" fill="#49494B"/>
<path d="M12.5173 2.27588H11.3793V3.41381H12.5173V2.27588Z" fill="#49494B"/>
<path d="M11.3793 2.27588H10.2414V3.41381H11.3793V2.27588Z" fill="#49494B"/>
<path d="M10.2414 2.27588H9.10345V3.41381H10.2414V2.27588Z" fill="#49494B"/>
<path d="M9.10345 2.27588H7.96552V3.41381H9.10345V2.27588Z" fill="#49494B"/>
<path d="M7.96551 2.27588H6.82758V3.41381H7.96551V2.27588Z" fill="#49494B"/>
<path d="M6.82757 2.27588H5.68964V3.41381H6.82757V2.27588Z" fill="#49494B"/>
<path d="M5.68969 3.41379H4.55176V4.55172H5.68969V3.41379Z" fill="#49494B"/>
<path d="M27.3104 2.27588H26.1724V3.41381H27.3104V2.27588Z" fill="#49494B"/>
<path d="M27.3104 2.27588H26.1724V3.41381H27.3104V2.27588Z" fill="#49494B"/>
<path d="M26.1724 2.27588H25.0345V3.41381H26.1724V2.27588Z" fill="#49494B"/>
<path d="M23.8965 2.27588H22.7586V3.41381H23.8965V2.27588Z" fill="#49494B"/>
<path d="M22.7586 2.27588H21.6207V3.41381H22.7586V2.27588Z" fill="#49494B"/>
<path d="M25.0345 2.27588H23.8965V3.41381H25.0345V2.27588Z" fill="#49494B"/>
<path d="M20.4827 2.27588H19.3448V3.41381H20.4827V2.27588Z" fill="#49494B"/>
<path d="M19.3448 2.27588H18.2069V3.41381H19.3448V2.27588Z" fill="#49494B"/>
<path d="M18.2069 2.27588H17.069V3.41381H18.2069V2.27588Z" fill="#49494B"/>
<path d="M17.069 2.27588H15.9311V3.41381H17.069V2.27588Z" fill="#49494B"/>
<path d="M15.9311 2.27588H14.7932V3.41381H15.9311V2.27588Z" fill="#49494B"/>
<path d="M14.7931 2.27588H13.6552V3.41381H14.7931V2.27588Z" fill="#49494B"/>
<path d="M13.6552 2.27588H12.5173V3.41381H13.6552V2.27588Z" fill="#49494B"/>
<path d="M21.6207 2.27588H20.4827V3.41381H21.6207V2.27588Z" fill="#49494B"/>
<path d="M21.6207 2.27588H20.4827V3.41381H21.6207V2.27588Z" fill="#49494B"/>
<path d="M12.5173 1.13794H11.3793V2.27587H12.5173V1.13794Z" fill="#49494B"/>
<path d="M11.3793 1.13794H10.2414V2.27587H11.3793V1.13794Z" fill="#49494B"/>
<path d="M10.2414 1.13794H9.10345V2.27587H10.2414V1.13794Z" fill="#49494B"/>
<path d="M9.10345 1.13794H7.96552V2.27587H9.10345V1.13794Z" fill="#49494B"/>
<path d="M23.8965 1.13794H22.7586V2.27587H23.8965V1.13794Z" fill="#49494B"/>
<path d="M22.7586 1.13794H21.6207V2.27587H22.7586V1.13794Z" fill="#49494B"/>
<path d="M25.0345 1.13794H23.8965V2.27587H25.0345V1.13794Z" fill="#49494B"/>
<path d="M20.4827 1.13794H19.3448V2.27587H20.4827V1.13794Z" fill="#49494B"/>
<path d="M19.3448 1.13794H18.2069V2.27587H19.3448V1.13794Z" fill="#49494B"/>
<path d="M18.2069 1.13794H17.069V2.27587H18.2069V1.13794Z" fill="#49494B"/>
<path d="M17.069 1.13794H15.9311V2.27587H17.069V1.13794Z" fill="#49494B"/>
<path d="M15.9311 1.13794H14.7932V2.27587H15.9311V1.13794Z" fill="#49494B"/>
<path d="M14.7931 1.13794H13.6552V2.27587H14.7931V1.13794Z" fill="#49494B"/>
<path d="M13.6552 1.13794H12.5173V2.27587H13.6552V1.13794Z" fill="#49494B"/>
<path d="M21.6207 1.13794H20.4827V2.27587H21.6207V1.13794Z" fill="#49494B"/>
<path d="M21.6207 1.13794H20.4827V2.27587H21.6207V1.13794Z" fill="#49494B"/>
<path d="M12.5173 0H11.3793V1.13793H12.5173V0Z" fill="#49494B"/>
<path d="M11.3793 0H10.2414V1.13793H11.3793V0Z" fill="#49494B"/>
<path d="M22.7586 0H21.6207V1.13793H22.7586V0Z" fill="#49494B"/>
<path d="M20.4827 0H19.3448V1.13793H20.4827V0Z" fill="#49494B"/>
<path d="M19.3448 0H18.2069V1.13793H19.3448V0Z" fill="#49494B"/>
<path d="M18.2069 0H17.069V1.13793H18.2069V0Z" fill="#49494B"/>
<path d="M17.069 0H15.9311V1.13793H17.069V0Z" fill="#49494B"/>
<path d="M15.9311 0H14.7932V1.13793H15.9311V0Z" fill="#49494B"/>
<path d="M14.7931 0H13.6552V1.13793H14.7931V0Z" fill="#49494B"/>
<path d="M13.6552 0H12.5173V1.13793H13.6552V0Z" fill="#49494B"/>
<path d="M21.6207 0H20.4827V1.13793H21.6207V0Z" fill="#49494B"/>
<path d="M21.6207 0H20.4827V1.13793H21.6207V0Z" fill="#49494B"/>
<path d="M12.5173 3.41379H11.3793V4.55172H12.5173V3.41379Z" fill="#49494B"/>
<path d="M11.3793 3.41379H10.2414V4.55172H11.3793V3.41379Z" fill="#49494B"/>
<path d="M10.2414 3.41379H9.10345V4.55172H10.2414V3.41379Z" fill="#49494B"/>
<path d="M9.10345 3.41379H7.96552V4.55172H9.10345V3.41379Z" fill="#49494B"/>
<path d="M7.96551 3.41379H6.82758V4.55172H7.96551V3.41379Z" fill="#49494B"/>
<path d="M6.82757 3.41379H5.68964V4.55172H6.82757V3.41379Z" fill="#49494B"/>
<path d="M3.41381 6.82761H2.27588V7.96554H3.41381V6.82761Z" fill="#49494B"/>
<path d="M27.3104 3.41379H26.1724V4.55172H27.3104V3.41379Z" fill="#49494B"/>
<path d="M27.3104 3.41379H26.1724V4.55172H27.3104V3.41379Z" fill="#49494B"/>
<path d="M26.1724 3.41379H25.0345V4.55172H26.1724V3.41379Z" fill="#49494B"/>
<path d="M23.8965 3.41379H22.7586V4.55172H23.8965V3.41379Z" fill="#49494B"/>
<path d="M22.7586 3.41379H21.6207V4.55172H22.7586V3.41379Z" fill="#49494B"/>
<path d="M25.0345 3.41379H23.8965V4.55172H25.0345V3.41379Z" fill="#49494B"/>
<path d="M20.4827 3.41379H19.3448V4.55172H20.4827V3.41379Z" fill="#49494B"/>
<path d="M19.3448 3.41379H18.2069V4.55172H19.3448V3.41379Z" fill="#49494B"/>
<path d="M18.2069 3.41379H17.069V4.55172H18.2069V3.41379Z" fill="#49494B"/>
<path d="M17.069 3.41379H15.9311V4.55172H17.069V3.41379Z" fill="#49494B"/>
<path d="M15.9311 3.41379H14.7932V4.55172H15.9311V3.41379Z" fill="#49494B"/>
<path d="M14.7931 3.41379H13.6552V4.55172H14.7931V3.41379Z" fill="#49494B"/>
<path d="M13.6552 3.41379H12.5173V4.55172H13.6552V3.41379Z" fill="#49494B"/>
<path d="M21.6207 3.41379H20.4827V4.55172H21.6207V3.41379Z" fill="#49494B"/>
<path d="M21.6207 3.41379H20.4827V4.55172H21.6207V3.41379Z" fill="#49494B"/>
<path d="M21.6207 7.96555H20.4827V9.10348H21.6207V7.96555Z" fill="#49494B"/>
<path d="M22.7586 6.82761H21.6207V7.96554H22.7586V6.82761Z" fill="#49494B"/>
</svg>
