<svg width="32" height="33" viewBox="0 0 32 33" fill="none" xmlns="http://www.w3.org/2000/svg">
<path d="M2.5 4H0V6.5H2.5V4Z" fill="#49494B"/>
<path d="M2.5 8H0V10.5H2.5V8Z" fill="#49494B"/>
<path d="M10.2576 0H7.75757V2.5H10.2576V0Z" fill="#49494B"/>
<path d="M8.31818 0H5.81818V2.5H8.31818V0Z" fill="#49494B"/>
<path d="M6.37878 0H3.87878V2.5H6.37878V0Z" fill="#49494B"/>
<path d="M6.37878 0H3.87878V2.5H6.37878V0Z" fill="#49494B"/>
<path d="M27.7121 0H25.2121V2.5H27.7121V0Z" fill="#49494B"/>
<path d="M25.7727 0H23.2727V2.5H25.7727V0Z" fill="#49494B"/>
<path d="M23.8333 0H21.3333V2.5H23.8333V0Z" fill="#49494B"/>
<path d="M21.8939 0H19.3939V2.5H21.8939V0Z" fill="#49494B"/>
<path d="M19.9545 0H17.4545V2.5H19.9545V0Z" fill="#49494B"/>
<path d="M18.0151 0H15.5151V2.5H18.0151V0Z" fill="#49494B"/>
<path d="M16.0757 0H13.5757V2.5H16.0757V0Z" fill="#49494B"/>
<path d="M14.1364 0H11.6364V2.5H14.1364V0Z" fill="#49494B"/>
<path d="M12.197 0H9.69696V2.5H12.197V0Z" fill="#49494B"/>
<path d="M10.2576 30H7.75757V32.5H10.2576V30Z" fill="#49494B"/>
<path d="M8.31818 30H5.81818V32.5H8.31818V30Z" fill="#49494B"/>
<path d="M6.37878 30H3.87878V32.5H6.37878V30Z" fill="#49494B"/>
<path d="M27.7121 30H25.2121V32.5H27.7121V30Z" fill="#49494B"/>
<path d="M25.7727 30H23.2727V32.5H25.7727V30Z" fill="#49494B"/>
<path d="M23.8333 30H21.3333V32.5H23.8333V30Z" fill="#49494B"/>
<path d="M21.8939 30H19.3939V32.5H21.8939V30Z" fill="#49494B"/>
<path d="M19.9545 30H17.4545V32.5H19.9545V30Z" fill="#49494B"/>
<path d="M18.0151 30H15.5151V32.5H18.0151V30Z" fill="#49494B"/>
<path d="M16.0757 30H13.5757V32.5H16.0757V30Z" fill="#49494B"/>
<path d="M14.1364 30H11.6364V32.5H14.1364V30Z" fill="#49494B"/>
<path d="M12.197 30H9.69696V32.5H12.197V30Z" fill="#49494B"/>
<path d="M4.43939 2H1.93939V4.5H4.43939V2Z" fill="#49494B"/>
<path d="M29.6515 28H27.1515V30.5H29.6515V28Z" fill="#49494B"/>
<path d="M18.0151 8H15.5151V10.5H18.0151V8Z" fill="#49494B"/>
<path d="M10.2576 18H7.75757V20.5H10.2576V18Z" fill="#49494B"/>
<path d="M23.8333 18H21.3333V20.5H23.8333V18Z" fill="#49494B"/>
<path d="M12.197 20H9.69696V22.5H12.197V20Z" fill="#49494B"/>
<path d="M21.8939 20H19.3939V22.5H21.8939V20Z" fill="#49494B"/>
<path d="M14.1364 22H11.6364V24.5H14.1364V22Z" fill="#49494B"/>
<path d="M19.9545 22H17.4545V24.5H19.9545V22Z" fill="#49494B"/>
<path d="M14.1364 8H11.6364V10.5H14.1364V8Z" fill="#49494B"/>
<path d="M10.2576 12H7.75757V14.5H10.2576V12Z" fill="#49494B"/>
<path d="M12.197 10H9.69696V12.5H12.197V10Z" fill="#49494B"/>
<path d="M19.9545 8H17.4545V10.5H19.9545V8Z" fill="#49494B"/>
<path d="M21.8939 10H19.3939V12.5H21.8939V10Z" fill="#49494B"/>
<path d="M25.7727 6H23.2727V8.5H25.7727V6Z" fill="#49494B"/>
<path d="M23.8333 12H21.3333V14.5H23.8333V12Z" fill="#49494B"/>
<path d="M16.0757 8H13.5757V10.5H16.0757V8Z" fill="#49494B"/>
<path d="M16.0757 22H13.5757V24.5H16.0757V22Z" fill="#49494B"/>
<path d="M23.8333 16H21.3333V18.5H23.8333V16Z" fill="#49494B"/>
<path d="M10.2576 14H7.75757V16.5H10.2576V14Z" fill="#49494B"/>
<path d="M10.2576 16H7.75757V18.5H10.2576V16Z" fill="#49494B"/>
<path d="M23.8333 14H21.3333V16.5H23.8333V14Z" fill="#49494B"/>
<path d="M18.0151 22H15.5151V24.5H18.0151V22Z" fill="#49494B"/>
<path d="M4.43939 28H1.93939V30.5H4.43939V28Z" fill="#49494B"/>
<path d="M29.6515 2H27.1515V4.5H29.6515V2Z" fill="#49494B"/>
<path d="M29.6515 2H27.1515V4.5H29.6515V2Z" fill="#49494B"/>
<path d="M2.5 6H0V8.5H2.5V6Z" fill="#49494B"/>
<path d="M2.5 10H0V12.5H2.5V10Z" fill="#49494B"/>
<path d="M2.5 20H0V22.5H2.5V20Z" fill="#49494B"/>
<path d="M2.5 24H0V26.5H2.5V24Z" fill="#49494B"/>
<path d="M2.5 22H0V24.5H2.5V22Z" fill="#49494B"/>
<path d="M2.5 26H0V28.5H2.5V26Z" fill="#49494B"/>
<path d="M2.5 12H0V14.5H2.5V12Z" fill="#49494B"/>
<path d="M2.5 16H0V18.5H2.5V16Z" fill="#49494B"/>
<path d="M2.5 14H0V16.5H2.5V14Z" fill="#49494B"/>
<path d="M2.5 18H0V20.5H2.5V18Z" fill="#49494B"/>
<path d="M31.5909 4H29.0909V6.5H31.5909V4Z" fill="#49494B"/>
<path d="M31.5909 8H29.0909V10.5H31.5909V8Z" fill="#49494B"/>
<path d="M31.5909 6H29.0909V8.5H31.5909V6Z" fill="#49494B"/>
<path d="M31.5909 10H29.0909V12.5H31.5909V10Z" fill="#49494B"/>
<path d="M31.5909 20H29.0909V22.5H31.5909V20Z" fill="#49494B"/>
<path d="M31.5909 24H29.0909V26.5H31.5909V24Z" fill="#49494B"/>
<path d="M31.5909 22H29.0909V24.5H31.5909V22Z" fill="#49494B"/>
<path d="M31.5909 26H29.0909V28.5H31.5909V26Z" fill="#49494B"/>
<path d="M31.5909 12H29.0909V14.5H31.5909V12Z" fill="#49494B"/>
<path d="M31.5909 16H29.0909V18.5H31.5909V16Z" fill="#49494B"/>
<path d="M31.5909 14H29.0909V16.5H31.5909V14Z" fill="#49494B"/>
<path d="M31.5909 18H29.0909V20.5H31.5909V18Z" fill="#49494B"/>
</svg>
