<svg width="29" height="28" viewBox="0 0 29 28" fill="none" xmlns="http://www.w3.org/2000/svg">
<path d="M3.37889 10.1917H0V13.5709H3.37889V10.1917Z" fill="#49494B"/>
<path d="M3.37889 6.82608H0V10.2052H3.37889V6.82608Z" fill="#49494B"/>
<path d="M6.74489 6.82608H3.366V10.2052H6.74489V6.82608Z" fill="#49494B"/>
<path d="M6.74489 0H3.366V4.93636H6.74489V0Z" fill="#49494B"/>
<path d="M3.37889 0H0V4.93636H3.37889V0Z" fill="#49494B"/>
<path d="M3.37889 13.5573H0V16.9365H3.37889V13.5573Z" fill="#49494B"/>
<path d="M3.37889 16.923H0V20.3021H3.37889V16.923Z" fill="#49494B"/>
<path d="M3.37889 16.923H0V20.3021H3.37889V16.923Z" fill="#49494B"/>
<path d="M3.37889 20.2886H0V23.6677H3.37889V20.2886Z" fill="#49494B"/>
<path d="M6.74489 20.2886H3.366V23.6677H6.74489V20.2886Z" fill="#49494B"/>
<path d="M6.74489 23.6543H3.366V27.0334H6.74489V23.6543Z" fill="#49494B"/>
<path d="M3.37889 23.6543H0V27.0334H3.37889V23.6543Z" fill="#49494B"/>
<path d="M6.74465 16.9231H3.36575V20.3023H6.74465V16.9231Z" fill="#49494B"/>
<path d="M6.74434 13.5573H3.36545V16.9365H6.74434V13.5573Z" fill="#49494B"/>
<path d="M6.74434 10.1917H3.36545V13.5709H6.74434V10.1917Z" fill="#49494B"/>
<path d="M25.6341 10.1331H22.2552V13.5123H25.6341V10.1331Z" fill="#49494B"/>
<path d="M25.6341 13.4987H22.2552V16.8779H25.6341V13.4987Z" fill="#49494B"/>
<path d="M25.6341 16.8644H22.2552V20.2435H25.6341V16.8644Z" fill="#49494B"/>
<path d="M25.6341 16.8644H22.2552V20.2435H25.6341V16.8644Z" fill="#49494B"/>
<path d="M25.6341 20.23H22.2552V23.6091H25.6341V20.23Z" fill="#49494B"/>
<path d="M29 20.23H25.6211V23.6091H29V20.23Z" fill="#49494B"/>
<path d="M29 23.5957H25.6211V26.9748H29V23.5957Z" fill="#49494B"/>
<path d="M25.6341 23.5957H22.2552V26.9748H25.6341V23.5957Z" fill="#49494B"/>
<path d="M28.9998 16.8646H25.6209V20.2437H28.9998V16.8646Z" fill="#49494B"/>
<path d="M28.9995 13.4987H25.6206V16.8779H28.9995V13.4987Z" fill="#49494B"/>
<path d="M28.9995 10.1331H25.6206V13.5123H28.9995V10.1331Z" fill="#49494B"/>
<path d="M13.476 10.1917H10.0971V13.5708H13.476V10.1917Z" fill="#49494B"/>
<path d="M13.476 6.82602H10.0971V10.2052H13.476V6.82602Z" fill="#49494B"/>
<path d="M16.842 6.82602H13.4631V10.2052H16.842V6.82602Z" fill="#49494B"/>
<path d="M23.5732 9.81311H20.1943V13.1923H23.5732V9.81311Z" fill="#49494B"/>
<path d="M22.9105 6.82614H19.5316V10.2053H22.9105V6.82614Z" fill="#49494B"/>
<path d="M26.2763 6.82614H22.8974V10.2053H26.2763V6.82614Z" fill="#49494B"/>
<path d="M13.476 13.5573H10.0971V16.9364H13.476V13.5573Z" fill="#49494B"/>
<path d="M13.476 16.9229H10.0971V20.3021H13.476V16.9229Z" fill="#49494B"/>
<path d="M13.476 16.9229H10.0971V20.3021H13.476V16.9229Z" fill="#49494B"/>
<path d="M13.476 20.2885H10.0971V23.6677H13.476V20.2885Z" fill="#49494B"/>
<path d="M16.842 20.2885H13.4631V23.6677H16.842V20.2885Z" fill="#49494B"/>
<path d="M16.842 23.6542H13.4631V27.0334H16.842V23.6542Z" fill="#49494B"/>
<path d="M13.476 23.6542H10.0971V27.0334H13.476V23.6542Z" fill="#49494B"/>
<path d="M16.8418 16.9231H13.4629V20.3022H16.8418V16.9231Z" fill="#49494B"/>
<path d="M16.8415 13.5573H13.4626V16.9364H16.8415V13.5573Z" fill="#49494B"/>
<path d="M16.8415 10.1917H13.4626V13.5708H16.8415V10.1917Z" fill="#49494B"/>
<path d="M20.2075 9.81311H16.8286V13.1923H20.2075V9.81311Z" fill="#49494B"/>
</svg>
