<svg width="30" height="28" viewBox="0 0 30 28" fill="none" xmlns="http://www.w3.org/2000/svg">
<path d="M3.4954 10.5432H0V14.0388H3.4954V10.5432Z" fill="#49494B"/>
<path d="M3.4954 7.06146H0V10.5571H3.4954V7.06146Z" fill="#49494B"/>
<path d="M6.97746 7.06146H3.48206V10.5571H6.97746V7.06146Z" fill="#49494B"/>
<path d="M6.97746 0H3.48206V5.10657H6.97746V0Z" fill="#49494B"/>
<path d="M3.4954 0H0V5.10657H3.4954V0Z" fill="#49494B"/>
<path d="M3.4954 14.0248H0V17.5205H3.4954V14.0248Z" fill="#49494B"/>
<path d="M3.4954 17.5065H0V21.0022H3.4954V17.5065Z" fill="#49494B"/>
<path d="M3.4954 17.5065H0V21.0022H3.4954V17.5065Z" fill="#49494B"/>
<path d="M3.4954 20.9882H0V24.4838H3.4954V20.9882Z" fill="#49494B"/>
<path d="M6.97746 20.9882H3.48206V24.4838H6.97746V20.9882Z" fill="#49494B"/>
<path d="M6.97746 24.4699H3.48206V27.9656H6.97746V24.4699Z" fill="#49494B"/>
<path d="M3.4954 24.4699H0V27.9656H3.4954V24.4699Z" fill="#49494B"/>
<path d="M6.97721 17.5067H3.48181V21.0024H6.97721V17.5067Z" fill="#49494B"/>
<path d="M6.97691 14.0248H3.48151V17.5205H6.97691V14.0248Z" fill="#49494B"/>
<path d="M6.97691 10.5432H3.48151V14.0388H6.97691V10.5432Z" fill="#49494B"/>
<path d="M26.518 10.4825H23.0226V13.9782H26.518V10.4825Z" fill="#49494B"/>
<path d="M26.518 13.9642H23.0226V17.4599H26.518V13.9642Z" fill="#49494B"/>
<path d="M26.518 17.4459H23.0226V20.9416H26.518V17.4459Z" fill="#49494B"/>
<path d="M26.518 17.4459H23.0226V20.9416H26.518V17.4459Z" fill="#49494B"/>
<path d="M26.518 20.9276H23.0226V24.4232H26.518V20.9276Z" fill="#49494B"/>
<path d="M30 20.9276H26.5046V24.4232H30V20.9276Z" fill="#49494B"/>
<path d="M30 24.4093H26.5046V27.905H30V24.4093Z" fill="#49494B"/>
<path d="M26.518 24.4093H23.0226V27.905H26.518V24.4093Z" fill="#49494B"/>
<path d="M29.9998 17.4461H26.5044V20.9418H29.9998V17.4461Z" fill="#49494B"/>
<path d="M29.9994 13.9642H26.504V17.4599H29.9994V13.9642Z" fill="#49494B"/>
<path d="M29.9994 10.4825H26.504V13.9782H29.9994V10.4825Z" fill="#49494B"/>
<path d="M13.9407 10.5431H10.4453V14.0388H13.9407V10.5431Z" fill="#49494B"/>
<path d="M13.9407 7.0614H10.4453V10.5571H13.9407V7.0614Z" fill="#49494B"/>
<path d="M17.4228 7.0614H13.9274V10.5571H17.4228V7.0614Z" fill="#49494B"/>
<path d="M24.3861 10.1515H20.8907V13.6472H24.3861V10.1515Z" fill="#49494B"/>
<path d="M23.7005 7.06152H20.2051V10.5572H23.7005V7.06152Z" fill="#49494B"/>
<path d="M27.1824 7.06152H23.687V10.5572H27.1824V7.06152Z" fill="#49494B"/>
<path d="M13.9407 14.0247H10.4453V17.5204H13.9407V14.0247Z" fill="#49494B"/>
<path d="M13.9407 17.5064H10.4453V21.0021H13.9407V17.5064Z" fill="#49494B"/>
<path d="M13.9407 17.5064H10.4453V21.0021H13.9407V17.5064Z" fill="#49494B"/>
<path d="M13.9407 20.9881H10.4453V24.4838H13.9407V20.9881Z" fill="#49494B"/>
<path d="M17.4228 20.9881H13.9274V24.4838H17.4228V20.9881Z" fill="#49494B"/>
<path d="M17.4228 24.4698H13.9274V27.9655H17.4228V24.4698Z" fill="#49494B"/>
<path d="M13.9407 24.4698H10.4453V27.9655H13.9407V24.4698Z" fill="#49494B"/>
<path d="M17.4225 17.5066H13.9271V21.0023H17.4225V17.5066Z" fill="#49494B"/>
<path d="M17.4222 14.0247H13.9268V17.5204H17.4222V14.0247Z" fill="#49494B"/>
<path d="M17.4222 10.5431H13.9268V14.0388H17.4222V10.5431Z" fill="#49494B"/>
<path d="M20.9043 10.1515H17.4089V13.6472H20.9043V10.1515Z" fill="#49494B"/>
</svg>
