<svg width="16" height="13" viewBox="0 0 16 13" fill="none" xmlns="http://www.w3.org/2000/svg">
<path d="M8.4706 2.78589H7.52941V3.71452H8.4706V2.78589Z" fill="black"/>
<path d="M0.941177 2.78589H0V5.57177H0.941177V2.78589Z" fill="black"/>
<path d="M9.41177 1.85727H8.4706V2.7859H9.41177V1.85727Z" fill="black"/>
<path d="M10.3529 0.92865H9.41177V1.85728H10.3529V0.92865Z" fill="black"/>
<path d="M13.1765 0H10.3529V0.928639H13.1765V0Z" fill="black"/>
<path d="M14.1176 0.92865H13.1765V1.85728H14.1176V0.92865Z" fill="black"/>
<path d="M15.0588 1.85727H14.1176V2.7859H15.0588V1.85727Z" fill="black"/>
<path d="M1.88235 1.85727H0.941176V2.7859H1.88235V1.85727Z" fill="black"/>
<path d="M2.82353 0.92865H1.88235V1.85728H2.82353V0.92865Z" fill="black"/>
<path d="M5.64706 0H2.82353V0.928639H5.64706V0Z" fill="black"/>
<path d="M6.58824 0.92865H5.64706V1.85728H6.58824V0.92865Z" fill="black"/>
<path d="M7.52941 1.85727H6.58824V2.7859H7.52941V1.85727Z" fill="black"/>
<path d="M16 2.78589H15.0588V5.57177H16V2.78589Z" fill="black"/>
<path d="M15.0588 5.57178H14.1176V6.50041H15.0588V5.57178Z" fill="black"/>
<path d="M14.1176 6.5004H13.1765V7.42903H14.1176V6.5004Z" fill="black"/>
<path d="M13.1765 7.42905H12.2353V8.35767H13.1765V7.42905Z" fill="black"/>
<path d="M12.2353 8.35767H11.2941V9.28629H12.2353V8.35767Z" fill="black"/>
<path d="M11.2941 9.28629H10.3529V10.2149H11.2941V9.28629Z" fill="black"/>
<path d="M10.3529 10.2149H9.41177V11.1435H10.3529V10.2149Z" fill="black"/>
<path d="M9.41177 11.1436H8.4706V12.0722H9.41177V11.1436Z" fill="black"/>
<path d="M8.4706 12.0722H7.52941V13.0008H8.4706V12.0722Z" fill="black"/>
<path d="M1.88235 5.57178H0.941176V6.50041H1.88235V5.57178Z" fill="black"/>
<path d="M2.82353 6.5004H1.88235V7.42903H2.82353V6.5004Z" fill="black"/>
<path d="M3.76471 7.42905H2.82353V8.35767H3.76471V7.42905Z" fill="black"/>
<path d="M4.70589 8.35767H3.76471V9.28629H4.70589V8.35767Z" fill="black"/>
<path d="M5.64706 9.28629H4.70589V10.2149H5.64706V9.28629Z" fill="black"/>
<path d="M6.58824 10.2149H5.64706V11.1435H6.58824V10.2149Z" fill="black"/>
<path d="M7.52941 11.1436H6.58824V12.0722H7.52941V11.1436Z" fill="black"/>
</svg>
